<svg width="93" height="93" fill="none" xmlns="http://www.w3.org/2000/svg"><g clip-path="url(#clip0_223_140)"><path d="M69.497 31.608h-.105a20.124 20.124 0 01-15.156-6.9C48.539 18.176 40.14 14.06 30.782 14.102c-16.985.075-31 14.346-30.78 31.33.22 16.89 13.979 30.515 30.92 30.515 4.786 0 9.316-1.088 13.36-3.029a10.313 10.313 0 0110.71 1.12 23.537 23.537 0 0014.322 4.86C82.28 78.92 92.924 68.36 93 55.395c.076-13.087-10.434-23.709-23.503-23.786z" fill="url(#paint0_linear_223_140)"/><path opacity=".1" d="M21.474 14.16v12.137c0 .502.406.908.908.908h3.797a.908.908 0 00.882-.692l1.706-6.955a.908.908 0 01.882-.692h9.933c.502 0 .908.407.908.909v44.374c0 .429-.3.8-.719.889l-9.657 2.055a.91.91 0 00-.72.888v3.23c0 .5.407.907.909.907h27.624a.908.908 0 00.908-.908v-3.229c0-.428-.3-.799-.719-.888l-9.657-2.055a.908.908 0 01-.72-.889V19.775c0-.502.407-.909.909-.909h9.933c.418 0 .782.286.882.692l1.706 6.955c.1.407.464.692.882.692h3.797a.908.908 0 00.908-.908V14.16a.908.908 0 00-.908-.908H22.382a.908.908 0 00-.908.908zm57.906 6.866h1.813a.908.908 0 00.728-1.451l-3.991-5.348a.908.908 0 00-1.456 0l-3.991 5.348a.908.908 0 00.728 1.451h1.814v43.319H73.21a.908.908 0 00-.728 1.45l3.991 5.348a.908.908 0 001.456 0l3.991-5.347a.908.908 0 00-.728-1.452H79.38V21.026z" fill="#243C70"/><path d="M21.486 17.99v12.13c0 .502.407.908.908.908h3.795a.908.908 0 00.881-.691l1.705-6.952a.908.908 0 01.882-.691h9.928c.501 0 .907.406.907.907v44.351c0 .429-.3.8-.718.888l-9.653 2.055a.908.908 0 00-.719.888v3.227c0 .501.407.907.908.907h27.61a.908.908 0 00.907-.907v-3.227c0-.429-.3-.799-.718-.888l-9.653-2.055a.908.908 0 01-.719-.888v-44.35c0-.502.407-.908.908-.908h9.928c.418 0 .782.285.881.691l1.706 6.951c.1.406.463.692.881.692h3.795a.908.908 0 00.907-.908V17.99a.908.908 0 00-.907-.907H22.394a.908.908 0 00-.908.907z" fill="#1E80F3"/><path d="M79.362 24.852h1.813a.908.908 0 00.727-1.45l-3.989-5.345a.908.908 0 00-1.455 0l-3.989 5.345a.908.908 0 00.728 1.45h1.813v43.295h-1.814a.908.908 0 00-.727 1.451l3.99 5.345a.908.908 0 001.454 0l3.99-5.345a.908.908 0 00-.728-1.45h-1.813V24.851z" fill="#78B5EE"/><path d="M65.837 16.174h-8.5a.908.908 0 100 1.817h8.5V30.12h-3.795l-1.705-6.951a1.812 1.812 0 00-1.764-1.384h-9.927a1.818 1.818 0 00-1.816 1.816v44.351c0 .852.604 1.6 1.437 1.777l9.653 2.054v3.226H30.311v-3.226l9.652-2.054a1.825 1.825 0 001.438-1.777v-44.35a1.818 1.818 0 00-1.816-1.817h-9.928c-.838 0-1.563.569-1.764 1.384l-1.704 6.95-3.794.001-.001-12.13h29.944a.908.908 0 100-1.816H22.394a1.818 1.818 0 00-1.816 1.816v12.13c0 1.002.815 1.816 1.816 1.816h3.795c.838 0 1.563-.569 1.764-1.383l1.704-6.951h9.928v44.35l-9.653 2.054a1.825 1.825 0 00-1.437 1.776v3.228c0 1 .814 1.816 1.815 1.816h27.61a1.818 1.818 0 001.816-1.816v-3.227c0-.852-.605-1.6-1.438-1.776l-9.652-2.054V23.602h9.927l1.705 6.95c.2.815.925 1.384 1.764 1.384h3.795a1.818 1.818 0 001.816-1.816V17.99a1.818 1.818 0 00-1.816-1.816zm-51.582 1.817a.908.908 0 100-1.816h-3.359a.908.908 0 00-.908.908v58.835c0 .502.407.908.909.908h3.358a.908.908 0 100-1.816h-2.45v-7.63h2.45a.908.908 0 100-1.817h-2.45v-8.168h2.45a.908.908 0 100-1.817h-2.45V47.41h2.45a.908.908 0 100-1.816h-2.45v-8.169h2.45a.908.908 0 100-1.816h-2.45V27.44h2.45a.908.908 0 100-1.816h-2.45V17.99h2.45zm66.92 49.249h-.905V25.76h.905c.692 0 1.313-.383 1.623-1.001a1.806 1.806 0 00-.168-1.9l-3.989-5.345a1.8 1.8 0 00-1.455-.73 1.8 1.8 0 00-1.456.73l-3.989 5.345a1.807 1.807 0 00-.168 1.9c.31.618.932 1.002 1.624 1.002h1.813a.908.908 0 100-1.817h-1.813l3.988-5.344 3.99 5.344h-1.813a.908.908 0 00-.908.908v43.295c0 .502.406.909.908.909l1.813-.001-3.989 5.345-3.99-5.344h1.814a.908.908 0 00.908-.909V29.852a.908.908 0 10-1.817 0V67.24h-.904c-.692 0-1.314.384-1.624 1.002a1.806 1.806 0 00.168 1.9l3.99 5.345a1.8 1.8 0 001.455.73 1.8 1.8 0 001.455-.73l3.99-5.345a1.806 1.806 0 00.167-1.9 1.806 1.806 0 00-1.623-1.002z" fill="#243C70"/><path d="M25.478 64.09a.908.908 0 01-.908-.908c0-.6-.488-1.09-1.089-1.09a.908.908 0 010-1.816c.6 0 1.09-.488 1.09-1.088a.908.908 0 111.816 0c0 .6.488 1.088 1.088 1.088a.908.908 0 010 1.817c-.6 0-1.088.488-1.088 1.089a.908.908 0 01-.909.908z" fill="#02BF7F"/><path d="M64.748 42.87a.908.908 0 01-.908-.909c0-.6-.489-1.088-1.089-1.088a.908.908 0 110-1.817c.6 0 1.089-.488 1.089-1.088a.908.908 0 111.816 0c0 .6.488 1.088 1.089 1.088a.908.908 0 110 1.817c-.6 0-1.089.488-1.089 1.088a.908.908 0 01-.908.909zm-33.723 8.532a.905.905 0 01-.642-.266l-1.997-1.997a.908.908 0 010-1.284l1.997-1.997a.908.908 0 011.284 0l1.997 1.997a.908.908 0 010 1.284l-1.997 1.997a.905.905 0 01-.642.266zm-.712-2.905l.712.713.713-.713-.713-.713-.712.713zM52.448 64.09a.908.908 0 01-.908-.908V35.426a.908.908 0 011.816 0v27.756a.908.908 0 01-.908.908z" fill="#1E80F3"/><path d="M40.103 11.443H10.896a.908.908 0 110-1.816h29.207a.908.908 0 110 1.816zm26.641 71.93H10.897a.908.908 0 110-1.816h55.847a.908.908 0 110 1.816z" fill="#F5CA2A"/><path d="M71.387 16.527a.908.908 0 01-.909-.909c0-.6-.488-1.088-1.088-1.088a.908.908 0 010-1.817c.6 0 1.088-.488 1.088-1.089a.908.908 0 111.817 0c0 .6.488 1.09 1.089 1.09a.908.908 0 010 1.816c-.6 0-1.09.488-1.09 1.088a.908.908 0 01-.907.909z" fill="#02BF7F"/></g><defs><linearGradient id="paint0_linear_223_140" x1="-4.347" y1="33.737" x2="95.928" y2="65.826" gradientUnits="userSpaceOnUse"><stop offset=".049" stop-color="#CBEDE4"/><stop offset=".999" stop-color="#B4CDF4"/></linearGradient><clipPath id="clip0_223_140"><path fill="#fff" d="M0 0h93v93H0z"/></clipPath></defs></svg>