<svg width="116" height="116" fill="none" xmlns="http://www.w3.org/2000/svg"><path d="M105.41 36.942c-3.367-3.922-5.584-8.69-6.62-13.754-.879-4.294-2.74-8.02-5.655-10.936-13.316-13.316-43.56-4.66-67.552 19.332C1.59 55.576-7.065 85.82 6.25 99.136c6.33 6.329 16.484 7.693 27.974 4.806 6.673-1.677 13.714-.972 20.003 1.819a43.787 43.787 0 0017.156 3.753c23.942.35 43.896-18.703 44.596-42.638a43.797 43.797 0 00-10.57-29.934z" fill="url(#paint0_linear_361_37)"/><path opacity=".1" d="M95.032 94.143H19.835a4.316 4.316 0 01-4.316-4.316V10.552a4.316 4.316 0 014.316-4.315h75.197a4.316 4.316 0 014.316 4.315v79.276a4.316 4.316 0 01-4.316 4.315z" fill="#242F4D"/><path d="M95.032 97.975H19.835a4.316 4.316 0 01-4.316-4.316V14.384a4.316 4.316 0 014.316-4.315h75.197a4.316 4.316 0 014.316 4.315V93.66a4.316 4.316 0 01-4.316 4.316z" fill="#fff"/><path d="M49.866 54.982H26.713a1.133 1.133 0 01-1.133-1.133V30.696c0-.625.507-1.133 1.133-1.133h23.152c.626 0 1.133.508 1.133 1.133V53.85c0 .626-.507 1.133-1.132 1.133z" fill="#CCEEE3"/><path d="M77.503 78.424c7.886 0 14.28-6.394 14.28-14.28 0-7.887-6.394-14.28-14.28-14.28-7.887 0-14.28 6.393-14.28 14.28 0 7.886 6.393 14.28 14.28 14.28z" fill="#FFE783"/><path d="M99.348 22.8v-8.416a4.316 4.316 0 00-4.316-4.315H19.835a4.316 4.316 0 00-4.316 4.315V22.8h83.829z" fill="#1E80F3"/><path d="M95.032 8.936H19.835a5.455 5.455 0 00-5.448 5.448v71.572a1.133 1.133 0 102.265 0V14.384a3.186 3.186 0 013.183-3.183h75.197a3.186 3.186 0 013.183 3.183v7.283H24.809a1.133 1.133 0 100 2.265h73.406V93.66a3.186 3.186 0 01-3.183 3.183H19.835a3.186 3.186 0 01-3.183-3.183 1.133 1.133 0 10-2.265 0 5.455 5.455 0 005.448 5.449h75.197a5.454 5.454 0 005.448-5.449V14.384a5.454 5.454 0 00-5.448-5.448z" fill="#242F4D"/><path d="M89.946 17.567h-3.743a1.133 1.133 0 010-2.266h3.743a1.133 1.133 0 110 2.266z" fill="#02BF7F"/><path d="M81.223 17.567h-3.742a1.133 1.133 0 110-2.266h3.742a1.133 1.133 0 110 2.266z" fill="#F5CA2A"/><path d="M68.649 17.567h-30.93a1.133 1.133 0 010-2.266h30.93a1.133 1.133 0 110 2.266z" fill="#EBEBFF"/><path d="M82.356 51.153c-.65 16.227-10.891 29.848-24.922 34.768-14.031-4.92-24.272-18.541-24.922-34.768 0 0 .147-10.324.469-13.845a1.124 1.124 0 011.121-1.022c3.813-.007 17.747-.29 22.647-4.042a1.132 1.132 0 011.369 0c4.9 3.752 18.834 4.035 22.647 4.042.582 0 1.07.442 1.121 1.022.322 3.521.47 13.845.47 13.845z" fill="#2FDFA4"/><path d="M82.356 51.153c-.65 16.227-10.891 29.848-24.922 34.768V32.013c.24 0 .48.077.684.231 4.9 3.752 18.834 4.035 22.647 4.042.582 0 1.07.442 1.121 1.022.322 3.521.47 13.845.47 13.845z" fill="#18BF87"/><path d="M57.434 78.611c-4.708-2.111-8.816-5.474-11.981-9.83-3.728-5.13-5.85-11.255-6.143-17.724.04-2.68.108-5.64.19-8.119a93.948 93.948 0 006.93-.593c4.57-.578 8.191-1.462 11.004-2.705 2.812 1.243 6.432 2.127 11.004 2.705 2.427.307 4.839.488 6.93.593.08 2.479.149 5.438.189 8.12-.293 6.468-2.415 12.593-6.143 17.723-3.165 4.356-7.273 7.719-11.98 9.83z" fill="#02BF7F"/><path d="M57.434 39.64c2.812 1.243 6.432 2.127 11.004 2.705 2.427.307 4.839.488 6.93.593.08 2.479.15 5.438.189 8.12-.293 6.468-2.415 12.593-6.143 17.723-3.165 4.356-7.273 7.719-11.98 9.83v-38.97z" fill="#13A573"/><path d="M57.434 63.826a8.587 8.587 0 100-17.174 8.587 8.587 0 000 17.174z" fill="#fff"/><path d="M57.434 57.533a3.46 3.46 0 01-3.456-3.456 3.46 3.46 0 013.456-3.456 3.46 3.46 0 013.457 3.456 3.46 3.46 0 01-3.456 3.456zm0-4.646a1.192 1.192 0 000 2.38 1.191 1.191 0 000-2.38z" fill="#02BF7F"/><path d="M59.758 59.857a1.133 1.133 0 01-1.133-1.133 1.192 1.192 0 00-2.38 0 1.133 1.133 0 11-2.267 0 3.46 3.46 0 013.456-3.456 3.46 3.46 0 013.457 3.456c0 .626-.508 1.133-1.133 1.133z" fill="#02BF7F"/><path d="M28.152 89.522H25.32a1.133 1.133 0 110-2.265h2.832a1.133 1.133 0 110 2.265zm21.071 0H32.797a1.133 1.133 0 110-2.265h16.426a1.133 1.133 0 010 2.265zM34.95 85.62h-9.63a1.133 1.133 0 110-2.266h9.63a1.133 1.133 0 110 2.265z" fill="#D9D9FF"/><path d="M28.152 80.007H25.32a1.133 1.133 0 110-2.266h2.832a1.133 1.133 0 110 2.266zm60.446 6.884a3.768 3.768 0 01-3.764-3.764 3.768 3.768 0 013.764-3.763 3.768 3.768 0 013.764 3.763 3.768 3.768 0 01-3.764 3.764zm0-5.262a1.5 1.5 0 00-1.498 1.498 1.5 1.5 0 001.498 1.498 1.5 1.5 0 001.498-1.498 1.5 1.5 0 00-1.498-1.498z" fill="#F5CA2A"/><path d="M91.229 89.522a1.133 1.133 0 01-1.133-1.133 1.5 1.5 0 00-1.498-1.498A1.5 1.5 0 0087.1 88.39a1.133 1.133 0 11-2.266 0 3.768 3.768 0 013.764-3.763 3.768 3.768 0 013.764 3.763c0 .626-.507 1.133-1.133 1.133z" fill="#F5CA2A"/><path d="M81.236 89.522h-2.832a1.133 1.133 0 110-2.265h2.832a1.133 1.133 0 110 2.265zm0-3.902h-2.832a1.133 1.133 0 110-2.266h2.832a1.133 1.133 0 110 2.265z" fill="#D9D9FF"/><path d="M7.366 57.14c-.29 0-.58-.11-.8-.331l-2.492-2.491a1.132 1.132 0 010-1.602l2.491-2.492a1.133 1.133 0 011.602 0l2.492 2.492c.442.442.442 1.16 0 1.602l-2.492 2.49a1.129 1.129 0 01-.8.333zm-.889-3.623l.89.889.888-.89-.889-.889-.889.89zm58.266 59.752c-.29 0-.58-.11-.8-.331l-2.492-2.492a1.13 1.13 0 010-1.601l2.491-2.492a1.135 1.135 0 011.602 0l2.491 2.492a1.131 1.131 0 010 1.601l-2.49 2.492a1.13 1.13 0 01-.802.331zm-.889-3.623l.889.889.889-.889-.889-.89-.889.89z" fill="#02BF7F"/><path d="M4.877 43.43a1.133 1.133 0 01-1.133-1.133c0-.752-.611-1.363-1.363-1.363a1.133 1.133 0 010-2.266c.752 0 1.363-.611 1.363-1.363a1.133 1.133 0 012.266 0c0 .751.611 1.363 1.363 1.363a1.133 1.133 0 110 2.266c-.752 0-1.363.611-1.363 1.363 0 .626-.508 1.133-1.133 1.133z" fill="#2A8CFF"/><defs><linearGradient id="paint0_linear_361_37" x1="-5.613" y1="46.151" x2="116" y2="102.28" gradientUnits="userSpaceOnUse"><stop offset=".002" stop-color="#CBEDE4"/><stop offset="1" stop-color="#B4CDF5"/></linearGradient></defs></svg>