<svg width="93" height="93" fill="none" xmlns="http://www.w3.org/2000/svg"><g clip-path="url(#clip0_224_43)"><path d="M93 46.63c0-5.02-2.271-9.725-6.239-13.776a37.554 37.554 0 01-6.814-9.581C74.337 11.972 64.77 4.528 53.912 4.528c-7.717 0-14.78 3.76-20.236 9.99-3.61 4.125-8.17 7.29-13.257 9.332C8.097 28.798 0 37.154 0 46.63c0 9.475 8.097 17.83 20.419 22.779 5.087 2.043 9.646 5.207 13.257 9.331 5.456 6.231 12.52 9.99 20.236 9.99 10.859 0 20.425-7.443 26.036-18.744a37.555 37.555 0 016.813-9.582C90.73 56.355 93 51.648 93 46.63z" fill="url(#paint0_linear_224_43)"/><path opacity=".1" d="M81.802 46.44a2.728 2.728 0 002.725-2.725v-32.99A2.728 2.728 0 0081.802 8H18.56a2.728 2.728 0 00-2.725 2.725v5.926c-3.783.112-6.828 3.22-6.833 7.03L9 23.69v39.96a7.052 7.052 0 007.044 7.045h34.344a.908.908 0 000-1.817H16.044a5.234 5.234 0 01-5.227-5.227V28.407a7.03 7.03 0 005.229 2.328h55.47c.5 0 .908.408.908.909v7.711a.908.908 0 001.816 0v-7.711a2.728 2.728 0 00-2.725-2.725h-.86v-4.43a.908.908 0 00-.907-.908h-.99a.908.908 0 100 1.817h.081v3.521H32.511v-4.43a.908.908 0 00-.908-.908h-.989a.908.908 0 000 1.817h.08v3.521H17.652L18.56 16.5c3.849 7.775 9.94.15 10.441.15l37.5-.15c-20.803 13.88-.5 6.695-.5 7.196l16.71 20.018a.91.91 0 01-.907.909h-8.471a.908.908 0 00-.908.908v9.082a14.212 14.212 0 00-2.576-.239c-7.825 0-14.192 6.367-14.192 14.192 0 7.826 6.367 14.193 14.192 14.193 7.826 0 14.192-6.367 14.192-14.193 0-6.293-4.118-11.639-9.8-13.493V46.44h7.563zm.422 22.126c0 6.824-5.552 12.376-12.376 12.376s-12.375-5.551-12.375-12.376c0-6.824 7.218-2.566 14.042-2.566 6.825 0 10.71-4.257 10.71 2.566z" fill="#243C70"/><path d="M71.252 32.243h-55.47a6.136 6.136 0 110-12.272h57.286v10.456a1.816 1.816 0 01-1.816 1.816z" fill="#1E80F3"/><path d="M81.54 47.948H18.296a1.816 1.816 0 01-1.816-1.817v-32.99c0-1.003.813-1.816 1.816-1.816h63.243c1.004 0 1.817.813 1.817 1.816v32.99a1.816 1.816 0 01-1.816 1.817z" fill="#02BF7F"/><path d="M75.662 17.919l.453-1.835a.908.908 0 00-.882-1.126H24.6a.908.908 0 00-.882 1.126l.453 1.835a.908.908 0 01-1.1 1.1l-1.835-.453a.908.908 0 00-1.126.882v20.378a.908.908 0 001.126.882l1.835-.453a.908.908 0 011.1 1.1l-.453 1.835a.908.908 0 00.882 1.126h50.632a.908.908 0 00.882-1.126l-.453-1.835a.908.908 0 011.1-1.1l1.835.453a.908.908 0 001.126-.882V19.448a.908.908 0 00-1.126-.882l-1.835.452a.908.908 0 01-1.1-1.1z" fill="#fff"/><path d="M49.917 40.045c5.748 0 10.409-4.66 10.409-10.409 0-5.748-4.66-10.409-10.41-10.409-5.748 0-10.408 4.66-10.408 10.41 0 5.748 4.66 10.408 10.409 10.408z" fill="#CCEEE3"/><path d="M57.904 41.027a3.404 3.404 0 100-6.808 3.404 3.404 0 000 6.808z" fill="#FFAB66"/><path d="M51.1 34.212h-3.81a.908.908 0 110-1.816h3.81a.927.927 0 000-1.851h-2.368a2.745 2.745 0 01-2.742-2.742 2.745 2.745 0 012.742-2.742h3.811a.908.908 0 110 1.816h-3.81a.927.927 0 000 1.851H51.1a2.745 2.745 0 012.742 2.742 2.745 2.745 0 01-2.742 2.742z" fill="#02BF7F"/><path d="M49.918 35.578a.908.908 0 01-.908-.908V24.604a.908.908 0 111.816 0V34.67a.908.908 0 01-.908.908z" fill="#02BF7F"/><path d="M65.918 36.746a1.015 1.015 0 100-2.03 1.015 1.015 0 000 2.03zm3.072 0a1.015 1.015 0 100-2.03 1.015 1.015 0 000 2.03zm3.071-2.031a1.015 1.015 0 110 2.03 1.015 1.015 0 010-2.03z" fill="#FF4D4D"/><path d="M65.918 24.558a1.015 1.015 0 100-2.03 1.015 1.015 0 000 2.03zm3.072 0a1.015 1.015 0 100-2.03 1.015 1.015 0 000 2.03zm3.071-2.031a1.015 1.015 0 110 2.031 1.015 1.015 0 010-2.03z" fill="#02BF7F"/><path d="M27.773 36.746a1.015 1.015 0 100-2.03 1.015 1.015 0 000 2.03zm3.072 0a1.015 1.015 0 100-2.03 1.015 1.015 0 000 2.03zm3.072-2.031a1.015 1.015 0 110 2.03 1.015 1.015 0 010-2.03z" fill="#FF4D4D"/><path d="M27.773 24.558a1.015 1.015 0 100-2.03 1.015 1.015 0 000 2.03zm3.072 0a1.015 1.015 0 100-2.03 1.015 1.015 0 000 2.03zm3.072-2.031a1.015 1.015 0 110 2.031 1.015 1.015 0 010-2.03z" fill="#02BF7F"/><path d="M73.069 34.06v36.327a1.816 1.816 0 01-1.816 1.817H15.78a6.136 6.136 0 01-6.135-6.136V26.107a6.138 6.138 0 006.137 6.137h55.47c1.003 0 1.816.813 1.816 1.817z" fill="#78B5EE"/><path d="M67.395 39.528h-2.18a.908.908 0 110-1.817h2.18a.908.908 0 110 1.817zm-7.241 0h-2.18a.908.908 0 110-1.817h2.18a.908.908 0 110 1.817zm-7.241 0h-2.18a.908.908 0 110-1.817h2.18a.908.908 0 110 1.817zm-7.241 0h-2.18a.908.908 0 110-1.817h2.18a.908.908 0 110 1.817zm-7.243 0h-2.18a.908.908 0 110-1.817h2.18a.908.908 0 110 1.817zm-7.241 0h-2.18a.908.908 0 110-1.817h2.18a.908.908 0 110 1.817zm-7.242 0h-2.18a.908.908 0 110-1.817h2.18a.908.908 0 110 1.817zm43.601 22.814a.908.908 0 01-.908-.908v-2.18a.908.908 0 111.816 0v2.18a.908.908 0 01-.908.908zm0-7.242a.908.908 0 01-.908-.908v-2.18a.908.908 0 111.816 0v2.18a.908.908 0 01-.908.909zm0-7.24a.908.908 0 01-.908-.91v-2.179a.908.908 0 111.816 0v2.18a.908.908 0 01-.908.908zm-.152 19.398h-2.18a.908.908 0 110-1.816h2.18a.908.908 0 110 1.816zm-7.241 0h-2.18a.908.908 0 110-1.816h2.18a.908.908 0 110 1.816zm-7.241 0h-2.18a.908.908 0 110-1.816h2.18a.908.908 0 110 1.816zm-7.241 0h-2.18a.908.908 0 110-1.816h2.18a.908.908 0 110 1.816zm-7.243 0h-2.18a.908.908 0 110-1.816h2.18a.908.908 0 110 1.816zm-7.241 0h-2.18a.908.908 0 110-1.816h2.18a.908.908 0 110 1.816zm-7.242 0h-2.18a.908.908 0 110-1.816h2.18a.908.908 0 110 1.816z" fill="#1E80F3"/><path d="M69.585 84.267c7.336 0 13.284-5.947 13.284-13.284 0-7.336-5.948-13.284-13.284-13.284-7.337 0-13.284 5.948-13.284 13.284 0 7.337 5.947 13.284 13.284 13.284z" fill="#F5CA2A"/><path d="M81.539 48.856a2.728 2.728 0 002.724-2.725v-32.99a2.728 2.728 0 00-2.724-2.724H18.295a2.728 2.728 0 00-2.724 2.724v5.927c-3.784.112-6.829 3.22-6.834 7.029v39.97a7.052 7.052 0 007.043 7.044h34.345a.908.908 0 100-1.816H15.78a5.234 5.234 0 01-5.227-5.228V30.824a7.03 7.03 0 005.23 2.328h55.469c.5 0 .908.408.908.908v7.712a.908.908 0 101.816 0V34.06a2.728 2.728 0 00-2.724-2.724h-.86v-4.43a.908.908 0 00-.908-.908h-.989a.908.908 0 100 1.816h.08v3.522H32.248v-4.43a.908.908 0 00-.908-.908h-.988a.908.908 0 100 1.816h.08v3.522H17.387V13.14c0-.5.408-.908.908-.908H81.54c.5 0 .908.408.908.908v32.99a.91.91 0 01-.908.908h-8.47a.908.908 0 00-.909.909v9.081a14.214 14.214 0 00-2.575-.238c-7.826 0-14.192 6.367-14.192 14.192 0 7.826 6.366 14.192 14.192 14.192 7.825 0 14.192-6.366 14.192-14.192 0-6.293-4.118-11.64-9.8-13.493v-8.634h7.562zM10.553 26.112v-.005a5.234 5.234 0 015.018-5.223V31.33a5.235 5.235 0 01-5.018-5.218zM81.96 70.983c0 6.824-5.551 12.376-12.375 12.376s-12.376-5.552-12.376-12.376 5.552-12.376 12.376-12.376S81.96 64.16 81.96 70.984z" fill="#242F4D"/><path d="M69.585 80.784c5.413 0 9.801-4.388 9.801-9.8 0-5.414-4.388-9.802-9.8-9.802-5.414 0-9.802 4.388-9.802 9.801s4.388 9.801 9.801 9.801z" fill="#fff"/><path d="M70.837 75.77h-3.453a.908.908 0 110-1.816h3.453a1.032 1.032 0 000-2.062h-2.504a2.85 2.85 0 01-2.848-2.848 2.85 2.85 0 012.848-2.847h3.453a.908.908 0 110 1.816h-3.453a1.032 1.032 0 000 2.062h2.504a2.85 2.85 0 012.848 2.848 2.85 2.85 0 01-2.848 2.847z" fill="#242F4D"/><path d="M69.585 77.214a.908.908 0 01-.908-.908V65.66a.908.908 0 111.816 0v10.645a.908.908 0 01-.908.908z" fill="#242F4D"/><path d="M66.17 9.392a.905.905 0 01-.642-.266l-2.001-2.001a.908.908 0 010-1.285l2.001-2.001a.908.908 0 011.284 0l2.002 2.001a.908.908 0 010 1.285l-2.001 2a.905.905 0 01-.643.267zm-.716-2.91l.716.717.717-.716-.717-.717-.716.717zm-7.544.337A.908.908 0 0157 5.91c0-.602-.49-1.092-1.093-1.092a.908.908 0 110-1.817c.603 0 1.093-.49 1.093-1.093a.908.908 0 111.817 0c0 .603.49 1.093 1.093 1.093a.908.908 0 010 1.817c-.603 0-1.093.49-1.093 1.092a.908.908 0 01-.908.909zm-9 75a.905.905 0 01-.642-.266l-2.002-2.001a.908.908 0 010-1.285l2.002-2.001a.908.908 0 011.284 0l2.001 2.001a.908.908 0 010 1.285l-2.001 2a.905.905 0 01-.642.267zm-.717-2.91l.717.717.717-.717-.717-.716-.717.716zm-14.283 8.91a.908.908 0 01-.91-.909c0-.602-.49-1.093-1.093-1.093a.908.908 0 110-1.816c.603 0 1.093-.49 1.093-1.093a.908.908 0 111.817 0c0 .603.49 1.093 1.093 1.093a.908.908 0 010 1.816c-.603 0-1.093.49-1.093 1.094a.908.908 0 01-.908.908zm52-30a.908.908 0 01-.91-.909c0-.602-.49-1.092-1.093-1.092a.908.908 0 110-1.817c.603 0 1.093-.49 1.093-1.093a.908.908 0 111.817 0c0 .603.49 1.093 1.093 1.093a.908.908 0 010 1.817c-.603 0-1.093.49-1.093 1.093a.908.908 0 01-.909.908z" fill="#02BF7F"/><path d="M21 50v-6.95h2.614c.756 0 1.354.221 1.792.665.44.443.659 1.03.659 1.757 0 .775-.244 1.377-.732 1.807-.487.424-1.106.636-1.856.636h-1.07V50H21zm1.408-3.445h1.115c.348 0 .619-.1.814-.298.2-.199.301-.457.301-.775 0-.337-.1-.596-.301-.774-.201-.185-.482-.278-.841-.278h-1.088v2.125zM25.915 50l2.743-7h1.298l2.742 7h-1.472l-.585-1.559h-2.706L27.35 50h-1.435zm2.523-2.91h1.7l-.85-2.253-.85 2.254zm6.04 2.91v-2.74l-2.46-4.21h1.646l1.527 2.79 1.554-2.79h1.6l-2.46 4.18V50h-1.407zm4.742 0v-6.95h4.828v1.36H40.62v1.41h3.016v1.36H40.62v1.46h3.474V50h-4.872zm6.125 0v-6.95h4.827v1.36h-3.428v1.41h3.017v1.36h-3.017v1.46h3.474V50h-4.873zm6.125 0v-6.95h2.925c.81 0 1.432.235 1.864.705.366.397.549.933.549 1.608 0 1.066-.457 1.784-1.371 2.155L57 50h-1.645l-1.39-2.224h-1.088V50H51.47zm1.407-3.575h1.426c.342 0 .607-.089.796-.268.189-.185.283-.43.283-.734 0-.325-.098-.57-.293-.735-.195-.172-.466-.258-.813-.258h-1.399v1.995z" fill="#fff"/></g><defs><linearGradient id="paint0_linear_224_43" x1="0" y1="-1.5" x2="93" y2="85" gradientUnits="userSpaceOnUse"><stop offset=".007" stop-color="#C9EBE6"/><stop offset=".992" stop-color="#B5CFF4"/></linearGradient><clipPath id="clip0_224_43"><path fill="#fff" d="M0 0h93v93H0z"/></clipPath></defs></svg>