<svg width="93" height="93" fill="none" xmlns="http://www.w3.org/2000/svg"><g clip-path="url(#clip0_223_0)"><path d="M69.497 31.609h-.105a20.123 20.123 0 01-15.156-6.9C48.539 18.175 40.14 14.06 30.782 14.101c-16.985.075-31 14.346-30.78 31.33.22 16.89 13.979 30.515 30.92 30.515 4.786 0 9.316-1.087 13.36-3.028a10.313 10.313 0 0110.71 1.119 23.537 23.537 0 0014.322 4.861C82.28 78.921 92.924 68.36 93 55.395c.076-13.088-10.434-23.71-23.503-23.786z" fill="url(#paint0_linear_223_0)"/><path d="M48.584 17.476a.906.906 0 01-.642-.266l-2.001-2.002a.908.908 0 010-1.284l2.001-2.001a.908.908 0 011.285 0l2 2.001a.908.908 0 010 1.284l-2 2.002a.905.905 0 01-.642.266zm-.716-2.91l.716.717.717-.717-.717-.717-.716.717zM20.02 83.916a.908.908 0 01-.641-.266l-2.002-2.001a.908.908 0 010-1.285l2.002-2a.908.908 0 011.284 0l2.001 2a.908.908 0 010 1.285l-2.001 2.001a.909.909 0 01-.642.266zm-.716-2.91l.717.718.717-.718-.717-.716-.717.716z" fill="#02BF7F"/><path d="M82.736 47.236a.908.908 0 01-.909-.908c0-.603-.49-1.093-1.093-1.093a.908.908 0 110-1.816c.603 0 1.093-.49 1.093-1.093a.908.908 0 111.817 0c0 .603.49 1.093 1.093 1.093a.908.908 0 110 1.816c-.603 0-1.093.49-1.093 1.093a.908.908 0 01-.909.908z" fill="#1E80F3"/><path d="M40.324 14.902a.908.908 0 01-.909-.908c0-.602-.49-1.093-1.093-1.093a.908.908 0 110-1.816c.603 0 1.093-.49 1.093-1.093a.908.908 0 111.817 0c0 .603.49 1.093 1.093 1.093a.908.908 0 110 1.816c-.603 0-1.093.49-1.093 1.093a.908.908 0 01-.908.908z" fill="#02BF7F"/><circle cx="46.5" cy="47.5" r="12.5" fill="#1E80F3"/><circle cx="65.5" cy="28.5" r="8.5" fill="#F5CA2A"/><circle cx="65.5" cy="66.5" r="8.5" fill="#F5CA2A"/><circle cx="27.5" cy="28.5" r="8.5" fill="#F5CA2A"/><circle cx="27.5" cy="66.5" r="8.5" fill="#F5CA2A"/><path fill-rule="evenodd" clip-rule="evenodd" d="M55.933 28.534c0 5.257 4.276 9.533 9.534 9.533 5.257 0 9.533-4.276 9.533-9.534C75 23.276 70.724 19 65.467 19c-5.258 0-9.534 4.276-9.534 9.534zm1.258 0a8.266 8.266 0 018.276-8.276c4.553 0 8.276 3.697 8.276 8.276a8.266 8.266 0 01-8.276 8.275 8.266 8.266 0 01-8.276-8.275zm-29.657 9.533c-5.258 0-9.534-4.276-9.534-9.533C18 23.276 22.276 19 27.534 19c5.257 0 9.533 4.276 9.533 9.534 0 5.257-4.276 9.533-9.533 9.533zm0-17.809a8.266 8.266 0 00-8.276 8.276 8.266 8.266 0 008.276 8.276 8.266 8.266 0 008.275-8.276 8.266 8.266 0 00-8.275-8.276zm0 2.262a6.014 6.014 0 100 12.028 6.014 6.014 0 000-12.028zm-6.715 6.014a6.714 6.714 0 1113.429 0 6.714 6.714 0 01-13.429 0zm.7 37.932a6.014 6.014 0 1112.029 0 6.014 6.014 0 01-12.029 0zm6.015-6.714a6.714 6.714 0 100 13.428 6.714 6.714 0 000-13.428zm37.932.7a6.014 6.014 0 100 12.028 6.014 6.014 0 000-12.028zm-6.714 6.014a6.714 6.714 0 1113.428 0 6.714 6.714 0 01-13.428 0zm.7-37.932a6.014 6.014 0 1112.028 0 6.014 6.014 0 01-12.028 0zm6.014-6.714a6.714 6.714 0 100 13.428 6.714 6.714 0 000-13.428zM42.479 60.4c-5.502-1.714-9.487-6.85-9.487-12.9 0-7.446 6.037-13.508 13.508-13.508a13.533 13.533 0 014.02.609c5.502 1.713 9.488 6.85 9.488 12.899 0 7.47-6.037 13.508-13.508 13.508a13.53 13.53 0 01-4.021-.609zm3.392-.695c-2.76-.394-5.09-3.35-6.132-7.426h6.132v7.426zm-4.045-.878c-1.522-1.556-2.715-3.846-3.37-6.548h-3.24a12.29 12.29 0 006.61 6.548zm4.045-7.806h-6.405a19.841 19.841 0 01-.31-3.521c0-1.223.108-2.406.31-3.522h6.405v7.043zm0-8.3h-6.132c1.042-4.076 3.372-7.032 6.132-7.426v7.425zm1.257 1.257v7.043h6.408c.202-1.116.31-2.298.31-3.521 0-1.223-.108-2.406-.31-3.522h-6.408zm6.134-1.258h-6.134v-7.426c2.762.393 5.093 3.35 6.134 7.426zm1.546 1.258c.193 1.123.296 2.304.296 3.522s-.104 2.398-.298 3.521h3.43c.334-1.115.514-2.297.514-3.521 0-1.224-.18-2.407-.514-3.522h-3.428zm2.975-1.258h-3.234c-.651-2.696-1.836-4.982-3.352-6.538a12.291 12.291 0 016.586 6.538zm-19.33 0c.651-2.696 1.836-4.983 3.353-6.54a12.291 12.291 0 00-6.589 6.54h3.236zm-3.69 1.258a12.253 12.253 0 00-.513 3.522c0 1.224.18 2.406.513 3.521h3.433a20.716 20.716 0 01-.298-3.521c0-1.218.103-2.399.296-3.522h-3.43zm12.365 15.728v-7.427h6.135c-1.042 4.077-3.373 7.034-6.135 7.427zm4.05-.88c1.52-1.557 2.713-3.846 3.368-6.547h3.237a12.29 12.29 0 01-6.605 6.546zM68.107 42.62c.725 3.201.73 6.526.012 9.729l-1.345-1.906a.64.64 0 00-.88-.15.64.64 0 00-.151.88l2.163 3.093a.614.614 0 00.88.126l3.094-2.163a.64.64 0 00.151-.88.64.64 0 00-.88-.151l-1.76 1.241a23.892 23.892 0 00-.052-10.096.618.618 0 00-.754-.478.63.63 0 00-.478.755zm-45.026.177a23.893 23.893 0 00.102 9.86.618.618 0 00.754.477.63.63 0 00.478-.754 22.149 22.149 0 01-.064-9.493l1.397 1.82a.654.654 0 00.503.252c.151 0 .277-.05.378-.126a.636.636 0 00.125-.88l-2.289-2.993a.636.636 0 00-.88-.126l-2.993 2.289a.636.636 0 00-.126.88.636.636 0 00.88.126l1.735-1.332zM18 66.467C18 71.722 22.276 76 27.534 76c5.257 0 9.533-4.277 9.533-9.534 0-5.257-4.276-9.533-9.534-9.533-5.257 0-9.533 4.276-9.533 9.533zm1.258 0a8.266 8.266 0 018.276-8.277 8.266 8.266 0 018.275 8.276 8.266 8.266 0 01-8.275 8.276 8.266 8.266 0 01-8.276-8.276zM65.467 76c-5.258 0-9.534-4.277-9.534-9.534 0-5.257 4.276-9.533 9.534-9.533 5.257 0 9.533 4.276 9.533 9.533S70.724 76 65.467 76zm0-17.81a8.266 8.266 0 00-8.276 8.276 8.266 8.266 0 008.276 8.276 8.266 8.266 0 008.276-8.276c0-4.578-3.723-8.276-8.276-8.276zM46.35 71.27c-1.663 0-3.325-.184-4.944-.531l1.246 1.764a.64.64 0 01-.151.88c-.126.101-.252.152-.378.127a.656.656 0 01-.528-.277l-2.163-3.094a.64.64 0 01.15-.88l3.095-2.164a.64.64 0 01.88.151.64.64 0 01-.15.88l-1.9 1.341a22.92 22.92 0 009.748-.007.63.63 0 01.755.478.618.618 0 01-.478.754c-1.71.377-3.446.579-5.182.579zm4.68-46.842l-1.31-1.705a.636.636 0 01.126-.88.636.636 0 01.88.125l2.29 2.994c.2.276.15.679-.126.88l-2.994 2.29a.618.618 0 01-.377.125.623.623 0 01-.629-.629c0-.201.1-.377.252-.503l1.844-1.416a22.924 22.924 0 00-9.516.058.63.63 0 01-.755-.478.63.63 0 01.478-.755 23.895 23.895 0 019.836-.106z" fill="#243C70"/><path d="M42.479 60.4l.044-.144-.044.143zm7.4-25.982l.037-.145-.037.145zm.641.183l-.044.143.044-.143zm-7.4 25.98l.038-.145-.038.146zm-3.38-8.302v-.15h-.194l.048.187.145-.037zm6.13 7.426l-.02.149.17.024v-.173h-.15zm0-7.426h.15v-.15h-.15v.15zm-7.414 0l.146-.035-.028-.115h-.118v.15zm3.37 6.548l-.058.139.165-.244-.107.105zm-6.61-6.548v-.15h-.226l.089.209.138-.059zm4.25-1.258l-.148.027.023.123h.125v-.15zm6.405 0v.15h.15v-.15h-.15zm-6.405-7.043v-.15h-.125l-.023.123.148.027zm6.405 0h.15v-.15h-.15v.15zm-6.132-1.258l-.145-.037-.048.187h.194v-.15zm6.132 0v.15h.15v-.15h-.15zm0-7.425h.15v-.173l-.172.024.022.149zm1.257 15.726h-.15v.15h.15v-.15zm0-7.043v-.15h-.15v.15h.15zm6.408 7.043v.15h.125l.023-.123-.148-.027zm0-7.043l.147-.027-.022-.123h-.125v.15zm-6.408-1.258h-.15v.15h.15v-.15zm6.134 0v.15h.194l-.048-.187-.146.037zm-6.134-7.426l.021-.148-.17-.025v.173h.15zm7.68 8.684v-.15h-.178l.03.175.148-.025zm-.002 7.043l-.148-.025-.03.175h.178v-.15zm3.43 0v.15h.112l.032-.107-.144-.043zm0-7.043l.144-.043-.032-.107h-.112v.15zM54.55 42.72l-.146.035.027.115h.119v-.15zm3.234 0v.15h.226l-.088-.208-.138.058zm-6.586-6.538l.057-.138-.165.243.108-.105zm-9.39-.001l.107.105-.165-.244.057.139zm-3.354 6.54v.15h.118l.028-.116-.146-.035zm-3.236 0l-.138-.06-.088.21h.226v-.15zm-.453 1.257v-.15h-.112l-.032.107.144.043zm0 7.043l-.144.043.032.107h.111v-.15zm3.432 0v.15h.178l-.03-.175-.148.025zm-.002-7.043l.148.025.03-.175h-.178v.15zm8.934 8.301v-.15h-.15v.15h.15zm0 7.427h-.15v.172l.171-.024-.02-.148zm6.135-7.427l.145.037.048-.187h-.194v.15zm1.283 0v-.15h-.118l-.028.115.146.035zm-3.368 6.546l-.107-.105.164.244-.057-.139zm6.605-6.546l.138.058.088-.208h-.226v.15zm10.336.07l-.122.086.195.277.074-.33-.147-.033zm-.012-9.73l.146-.032-.146.033zm-1.333 7.824l.123-.087-.002-.001-.12.088zm-.88-.15l-.089-.122.089.121zm-.151.88l.123-.087-.002-.002-.121.088zm2.163 3.093l-.123.086.002.003.121-.089zm.88.126l-.086-.123-.009.007.095.116zm3.094-2.163l.086.123.003-.002-.089-.121zm.151-.88l.122-.089-.122.089zm-.88-.151l.086.122.002-.001-.088-.121zm-1.76 1.241l-.146-.03-.079.373.312-.22-.086-.123zm-.052-10.096l-.146.032.146-.032zm-.754-.478l.031.147-.031-.147zM23.183 52.656l.146-.031v-.001l-.146.032zm-.102-9.859l.147.03.079-.392-.317.243.091.12zm.856 10.337l-.031-.147.031.147zm.478-.754l-.146.033.146-.033zm-.064-9.493l.119-.091-.198-.258-.068.318.147.031zm1.397 1.82l-.119.092.004.005.115-.096zm.88.126l-.087-.12h-.002l.09.12zm.127-.88l.12-.088-.001-.003-.12.091zm-2.29-2.993l-.12.088.001.003.12-.091zm-.88-.126l-.088-.121-.003.002.091.119zm-2.993 2.289l.088.121.003-.002-.091-.12zm-.126.88l.121-.088-.121.088zm.88.126l.089.122.003-.003-.092-.119zm20.06 26.61l.032-.147-.376-.08.221.313.123-.086zm1.246 1.764l-.123.087.001.002.122-.089zm-.151.88l-.089-.12-.005.004.094.117zm-.378.127l.03-.148-.015-.002h-.015v.15zm-.528-.277l-.123.086.001.001.122-.087zm-2.163-3.094l.123-.086-.002-.002-.121.088zm.15-.88l-.085-.124-.002.002.088.121zm3.095-2.164l.086.123.002-.002-.088-.12zm.88.151l.121-.088-.12.088zm-.15.88l.086.123.002-.001-.089-.122zm-1.9 1.341l-.087-.122-.279.197.334.072.032-.147zm9.748-.007l.032.146h.002l-.034-.146zm.755.478l.146-.032-.146.031zm-.478.754l-.032-.147.032.147zm-.503-46.264l-.03.147.392.078-.243-.316-.119.091zm-1.309-1.705l-.121.088.002.003.12-.091zm.126-.88l.088.12-.088-.12zm.88.125l-.121.089.002.002.12-.09zm2.29 2.994l.12-.089-.002-.002-.119.09zm-.126.88l-.089-.121-.003.002.092.12zm-2.994 2.29l.09.12.001-.002-.09-.119zm-.754-1.007l-.092-.12-.004.005.096.115zm1.844-1.416l.091.12.26-.2-.321-.067-.03.147zm-9.516.058l-.032-.147h-.002l.034.146zm-.755-.478l.147-.032v-.002l-.147.034zm.478-.755l.032.147-.032-.147zm24.274 13.383c-5.175 0-9.384-4.21-9.384-9.384h-.3c0 5.34 4.344 9.684 9.684 9.684v-.3zm9.383-9.384c0 5.175-4.209 9.384-9.383 9.384v.3c5.34 0 9.683-4.343 9.683-9.683h-.3zm-9.383-9.383c5.174 0 9.383 4.21 9.383 9.384h.3c0-5.34-4.343-9.684-9.683-9.684v.3zm-9.384 9.384c0-5.175 4.21-9.384 9.384-9.384v-.3c-5.34 0-9.684 4.343-9.684 9.683h.3zm9.384-8.426a8.416 8.416 0 00-8.426 8.425h.3a8.116 8.116 0 018.126-8.125v-.3zm8.425 8.425c0-4.66-3.79-8.425-8.425-8.425v.3c4.47 0 8.126 3.63 8.126 8.125h.3zm-8.425 8.426a8.416 8.416 0 008.425-8.426h-.3a8.116 8.116 0 01-8.125 8.126v.3zm-8.426-8.426a8.416 8.416 0 008.426 8.426v-.3a8.116 8.116 0 01-8.126-8.125h-.3zm-39.19 0c0 5.34 4.343 9.684 9.683 9.684v-.3c-5.175 0-9.384-4.209-9.384-9.383h-.3zm9.683-9.683c-5.34 0-9.684 4.344-9.684 9.684h.3c0-5.175 4.21-9.384 9.384-9.384v-.3zm9.683 9.684c0-5.34-4.343-9.684-9.683-9.684v.3c5.174 0 9.383 4.21 9.383 9.384h.3zm-9.683 9.683c5.34 0 9.683-4.343 9.683-9.683h-.3c0 5.174-4.209 9.383-9.383 9.383v.3zm-8.126-9.683a8.116 8.116 0 018.126-8.126v-.3a8.416 8.416 0 00-8.426 8.426h.3zm8.126 8.126a8.116 8.116 0 01-8.126-8.126h-.3a8.416 8.416 0 008.426 8.425v-.3zm8.125-8.126a8.116 8.116 0 01-8.125 8.126v.3a8.416 8.416 0 008.425-8.426h-.3zm-8.125-8.126a8.116 8.116 0 018.125 8.126h.3a8.416 8.416 0 00-8.425-8.426v.3zm-5.865 8.126a5.864 5.864 0 015.864-5.864v-.3a6.164 6.164 0 00-6.164 6.164h.3zm5.864 5.864a5.864 5.864 0 01-5.864-5.864h-.3a6.164 6.164 0 006.165 6.164v-.3zm5.864-5.864a5.864 5.864 0 01-5.863 5.864v.3a6.164 6.164 0 006.163-6.164h-.3zm-5.863-5.864a5.864 5.864 0 015.864 5.864h.3a6.164 6.164 0 00-6.165-6.164v.3zm0-1a6.864 6.864 0 00-6.865 6.864h.3a6.564 6.564 0 016.564-6.564v-.3zm6.864 6.864a6.864 6.864 0 00-6.865-6.864v.3a6.564 6.564 0 016.564 6.564h.3zm-6.865 6.864a6.864 6.864 0 006.864-6.864h-.3a6.564 6.564 0 01-6.564 6.564v.3zm-6.864-6.864a6.864 6.864 0 006.864 6.864v-.3a6.564 6.564 0 01-6.564-6.564h-.3zm6.864 31.768a6.164 6.164 0 00-6.164 6.164h.3a5.864 5.864 0 015.864-5.864v-.3zm6.164 6.164a6.164 6.164 0 00-6.164-6.164v.3a5.864 5.864 0 015.864 5.864h.3zm-6.164 6.164a6.164 6.164 0 006.164-6.164h-.3a5.864 5.864 0 01-5.863 5.864v.3zm-6.164-6.164a6.164 6.164 0 006.165 6.164v-.3a5.864 5.864 0 01-5.865-5.864h-.3zm-.4 0a6.564 6.564 0 016.564-6.564v-.3a6.864 6.864 0 00-6.864 6.864h.3zm6.564 6.564a6.564 6.564 0 01-6.564-6.564h-.3a6.864 6.864 0 006.864 6.864v-.3zm6.564-6.564a6.564 6.564 0 01-6.564 6.564v.3a6.864 6.864 0 006.864-6.864h-.3zm-6.564-6.564a6.564 6.564 0 016.564 6.564h.3a6.864 6.864 0 00-6.863-6.864v.3zm32.069 6.564a5.864 5.864 0 015.864-5.864v-.3a6.164 6.164 0 00-6.164 6.164h.3zm5.864 5.864a5.864 5.864 0 01-5.864-5.864h-.3a6.164 6.164 0 006.164 6.164v-.3zm5.864-5.864a5.864 5.864 0 01-5.864 5.864v.3a6.164 6.164 0 006.164-6.164h-.3zm-5.864-5.864a5.864 5.864 0 015.864 5.864h.3a6.164 6.164 0 00-6.164-6.164v.3zm0-1a6.864 6.864 0 00-6.864 6.864h.3a6.564 6.564 0 016.564-6.564v-.3zm6.864 6.864a6.864 6.864 0 00-6.864-6.864v.3a6.564 6.564 0 016.564 6.564h.3zm-6.864 6.864a6.864 6.864 0 006.864-6.864h-.3a6.564 6.564 0 01-6.564 6.564v.3zm-6.864-6.864a6.864 6.864 0 006.864 6.864v-.3a6.564 6.564 0 01-6.564-6.564h-.3zm6.864-44.096a6.164 6.164 0 00-6.164 6.164h.3a5.864 5.864 0 015.864-5.864v-.3zm6.164 6.164a6.164 6.164 0 00-6.164-6.164v.3a5.864 5.864 0 015.864 5.864h.3zm-6.164 6.164a6.164 6.164 0 006.164-6.164h-.3a5.864 5.864 0 01-5.864 5.864v.3zm-6.164-6.164a6.164 6.164 0 006.164 6.164v-.3a5.864 5.864 0 01-5.864-5.864h-.3zm-.4 0a6.564 6.564 0 016.564-6.564v-.3a6.864 6.864 0 00-6.864 6.864h.3zm6.564 6.564a6.564 6.564 0 01-6.564-6.564h-.3a6.864 6.864 0 006.864 6.864v-.3zm6.564-6.564a6.564 6.564 0 01-6.564 6.564v.3a6.864 6.864 0 006.864-6.864h-.3zm-6.564-6.564a6.564 6.564 0 016.564 6.564h.3a6.864 6.864 0 00-6.864-6.864v.3zM32.842 47.5c0 6.117 4.03 11.31 9.592 13.042l.09-.286c-5.441-1.694-9.382-6.774-9.382-12.756h-.3zM46.5 33.842c-7.554 0-13.658 6.13-13.658 13.658h.3c0-7.363 5.97-13.358 13.358-13.358v-.3zm3.416.431a13.679 13.679 0 00-3.416-.43v.3c1.154 0 2.274.145 3.342.42l.074-.29zm.649.184a13.81 13.81 0 00-.649-.184l-.074.29c.213.055.425.116.634.18l.089-.286zM60.158 47.5c0-6.117-4.03-11.31-9.593-13.043l-.09.287c5.442 1.694 9.383 6.774 9.383 12.756h.3zM46.5 61.158A13.644 13.644 0 0060.158 47.5h-.3c0 7.388-5.97 13.358-13.358 13.358v.3zm-3.417-.431c1.092.281 2.237.43 3.417.43v-.3a13.38 13.38 0 01-3.342-.42l-.075.29zm-.649-.185c.214.067.43.129.649.185l.075-.29a13.158 13.158 0 01-.635-.181l-.089.286zm-2.84-8.226c.525 2.054 1.376 3.833 2.45 5.151 1.074 1.318 2.378 2.183 3.805 2.387l.043-.297c-1.333-.19-2.574-1.001-3.615-2.28-1.041-1.277-1.876-3.014-2.392-5.035l-.29.074zm6.277-.187h-6.132v.3h6.132v-.3zm.15 7.576V52.28h-.3v7.426h.3zm-7.71-7.39c.66 2.72 1.863 5.038 3.407 6.617l.215-.21c-1.499-1.532-2.68-3.797-3.331-6.478l-.292.07zm-3.094.114h3.24v-.3h-3.24v.3zm6.666 6.26a12.14 12.14 0 01-6.528-6.469l-.276.117a12.44 12.44 0 006.69 6.629l.114-.278zm-2.417-7.518h6.405v-.3h-6.405v.3zm-.46-3.671c0 1.232.11 2.423.312 3.548l.296-.053a19.69 19.69 0 01-.308-3.495h-.3zm.313-3.549a19.989 19.989 0 00-.313 3.549h.3a19.7 19.7 0 01.308-3.495l-.295-.054zm6.552-.123h-6.405v.3h6.405v-.3zm.15 7.193v-7.043h-.3v7.043h.3zm-6.282-8.15h6.132v-.3h-6.132v.3zm6.11-7.725c-1.427.204-2.73 1.069-3.805 2.386-1.074 1.318-1.925 3.097-2.45 5.151l.29.074c.517-2.02 1.352-3.758 2.393-5.035 1.041-1.278 2.282-2.089 3.615-2.279l-.043-.297zm.172 7.574v-7.425h-.3v7.425h.3zm1.257 8.301v-7.043h-.3v7.043h.3zm6.258-.15h-6.408v.3h6.408v-.3zm.16-3.371a19.7 19.7 0 01-.308 3.495l.296.053c.203-1.125.312-2.316.312-3.548h-.3zm-.308-3.495c.2 1.107.308 2.28.308 3.495h.3c0-1.232-.11-2.423-.313-3.549l-.295.054zm-6.26.123h6.408v-.3h-6.408v.3zm0-1.258h6.134v-.3h-6.134v.3zm-.15-7.576v7.426h.3v-7.426h-.3zm6.43 7.39c-.525-2.056-1.377-3.835-2.452-5.153-1.074-1.318-2.378-2.182-3.807-2.385l-.042.297c1.333.19 2.575 1 3.617 2.277 1.042 1.278 1.876 3.016 2.393 5.037l.29-.074zm1.846 4.816c0-1.226-.104-2.416-.298-3.547l-.296.05a20.68 20.68 0 01.294 3.497h.3zm-.3 3.547c.195-1.132.3-2.321.3-3.547h-.3c0 1.209-.103 2.381-.296 3.496l.296.05zm3.282-.176h-3.43v.3h3.43v-.3zM58.6 47.5c0 1.21-.178 2.377-.507 3.478l.287.086c.338-1.129.52-2.325.52-3.564h-.3zm-.508-3.479c.33 1.102.508 2.27.508 3.479h.3c0-1.24-.182-2.436-.52-3.565l-.288.086zm-3.284.107h3.428v-.3h-3.428v.3zm-.26-1.258h3.235v-.3h-3.234v.3zm-3.459-6.583c1.494 1.532 2.668 3.792 3.314 6.468l.291-.07c-.655-2.716-1.85-5.028-3.39-6.607l-.215.209zm6.832 6.375a12.44 12.44 0 00-6.667-6.618l-.115.277a12.14 12.14 0 016.505 6.458l.277-.117zm-16.222-6.586c-1.54 1.58-2.736 3.893-3.392 6.61l.292.07c.646-2.677 1.82-4.938 3.315-6.47l-.215-.21zm-6.344 6.703a12.141 12.141 0 016.509-6.46l-.115-.277a12.44 12.44 0 00-6.67 6.62l.276.117zm3.098-.209h-3.236v.3h3.236v-.3zM34.4 47.5c0-1.21.177-2.377.507-3.479l-.287-.086a12.405 12.405 0 00-.52 3.565h.3zm.507 3.478A12.107 12.107 0 0134.4 47.5h-.3c0 1.239.181 2.435.52 3.564l.287-.086zm3.289-.107h-3.433v.3h3.433v-.3zm-.448-3.371c0 1.226.105 2.415.3 3.547l.296-.051a20.558 20.558 0 01-.296-3.496h-.3zm.298-3.547a20.972 20.972 0 00-.298 3.547h.3c0-1.21.102-2.382.294-3.497l-.296-.05zm-3.282.175h3.43v-.3h-3.43v.3zm12.214 8.151v7.427h.3v-7.427h-.3zm6.285-.15h-6.135v.3h6.135v-.3zm-6.114 7.725c1.429-.203 2.733-1.067 3.808-2.385 1.074-1.319 1.926-3.098 2.45-5.153l-.29-.074c-.516 2.022-1.351 3.76-2.393 5.037-1.042 1.278-2.284 2.089-3.617 2.278l.042.297zm7.25-7.61c-.649 2.68-1.83 4.944-3.328 6.476l.214.21c1.544-1.58 2.747-3.895 3.407-6.616l-.292-.07zm3.384-.115h-3.237v.3h3.237v-.3zm-6.548 6.835a12.44 12.44 0 006.686-6.627l-.276-.117a12.14 12.14 0 01-6.524 6.467l.114.277zm17.03-6.582a22.299 22.299 0 00-.012-9.795l-.293.066a22 22 0 01.013 9.663l.293.066zm-1.614-1.852l1.346 1.905.245-.173-1.345-1.906-.246.173zm-.67-.117a.49.49 0 01.672.118l.242-.176a.79.79 0 00-1.09-.184l.177.242zm-.117.671a.49.49 0 01.118-.67l-.177-.243c-.34.247-.437.742-.184 1.09l.243-.177zm2.165 3.096l-2.163-3.093-.246.171 2.163 3.094.246-.171zm.662.096a.464.464 0 01-.664-.098l-.242.177c.247.34.747.44 1.096.153l-.19-.232zm3.103-2.17l-3.093 2.163.171.246 3.094-2.163-.172-.246zm.116-.67a.49.49 0 01-.118.672l.177.242c.34-.247.437-.742.184-1.09l-.243.177zm-.67-.117a.49.49 0 01.67.118l.243-.177c-.247-.34-.743-.437-1.09-.184l.176.243zm-1.762 1.243l1.76-1.242-.174-.245-1.759 1.242.173.245zm-.285-10.186c.732 3.294.75 6.731.052 10.032l.294.062a24.04 24.04 0 00-.053-10.16l-.293.066zm-.577-.364a.468.468 0 01.577.363l.293-.063a.768.768 0 00-.933-.593l.063.293zm-.363.574a.48.48 0 01.363-.574l-.063-.293a.78.78 0 00-.592.935l.292-.068zM23.329 52.624a23.745 23.745 0 01-.1-9.797l-.295-.06a24.044 24.044 0 00.102 9.922l.293-.065zm.577.363a.468.468 0 01-.577-.362l-.293.063a.768.768 0 00.933.593l-.063-.294zm.363-.574a.48.48 0 01-.363.575l.063.293a.78.78 0 00.592-.935l-.292.067zm-.065-9.557a22.302 22.302 0 00.065 9.557l.293-.067a22 22 0 01-.064-9.427l-.294-.063zm1.663 1.76l-1.397-1.82-.238.183 1.397 1.82.238-.183zm.384.193a.507.507 0 01-.387-.197l-.23.192a.806.806 0 00.617.305v-.3zm.288-.096a.468.468 0 01-.288.096v.3a.768.768 0 00.468-.156l-.18-.24zm.094-.672a.486.486 0 01-.092.671l.176.243c.348-.253.405-.751.159-1.09l-.243.176zm-2.287-2.99l2.29 2.993.238-.182-2.29-2.993-.238.182zm-.673-.096a.486.486 0 01.671.093l.243-.177c-.253-.348-.751-.405-1.09-.158l.176.242zm-2.99 2.287l2.993-2.289-.182-.238-2.993 2.289.182.238zm-.096.673a.486.486 0 01.093-.67l-.177-.243c-.348.253-.405.75-.158 1.09l.242-.177zm.671.093a.486.486 0 01-.67-.093l-.243.177c.253.348.75.405 1.09.158l-.177-.242zm1.732-1.33l-1.735 1.332.183.238 1.735-1.332-.183-.238zm4.544 33.172c-5.175 0-9.384-4.21-9.384-9.384h-.3c0 5.34 4.343 9.684 9.683 9.684v-.3zm9.383-9.384c0 5.175-4.21 9.384-9.384 9.384v.3c5.34 0 9.684-4.344 9.684-9.684h-.3zm-9.384-9.383c5.175 0 9.384 4.209 9.384 9.383h.3c0-5.34-4.343-9.683-9.683-9.683v.3zm-9.383 9.383c0-5.174 4.21-9.383 9.384-9.383v-.3c-5.34 0-9.684 4.343-9.684 9.683h.3zm9.384-8.426a8.416 8.416 0 00-8.426 8.426h.3a8.116 8.116 0 018.125-8.126v-.3zm8.425 8.426a8.416 8.416 0 00-8.426-8.426v.3a8.116 8.116 0 018.126 8.126h.3zm-8.426 8.426a8.416 8.416 0 008.426-8.426h-.3a8.116 8.116 0 01-8.125 8.126v.3zm-8.425-8.426a8.416 8.416 0 008.425 8.426v-.3a8.116 8.116 0 01-8.125-8.126h-.3zm36.675 0c0 5.34 4.344 9.684 9.684 9.684v-.3c-5.175 0-9.384-4.21-9.384-9.384h-.3zm9.684-9.683c-5.34 0-9.684 4.343-9.684 9.683h.3c0-5.174 4.21-9.383 9.384-9.383v-.3zm9.683 9.683c0-5.34-4.343-9.683-9.683-9.683v.3c5.174 0 9.383 4.209 9.383 9.383h.3zm-9.683 9.684c5.34 0 9.683-4.344 9.683-9.684h-.3c0 5.175-4.209 9.384-9.383 9.384v.3zm-8.126-9.684a8.116 8.116 0 018.126-8.126v-.3a8.416 8.416 0 00-8.426 8.426h.3zm8.126 8.126a8.116 8.116 0 01-8.126-8.126h-.3a8.416 8.416 0 008.426 8.426v-.3zm8.126-8.126a8.116 8.116 0 01-8.126 8.126v.3a8.416 8.416 0 008.425-8.426h-.3zm-8.126-8.126c4.47 0 8.126 3.631 8.126 8.126h.3c0-4.661-3.79-8.426-8.426-8.426v.3zM41.374 70.885c1.629.35 3.302.536 4.976.536v-.3c-1.652 0-3.304-.184-4.913-.529l-.063.293zm1.4 1.532l-1.245-1.765-.246.173 1.246 1.765.245-.173zm-.185 1.088c.34-.247.437-.742.184-1.09l-.243.177a.49.49 0 01-.117.67l.176.243zm-.495.152c.188.037.359-.043.5-.156l-.187-.234c-.11.088-.19.108-.254.095l-.059.295zm-.62-.337c.153.215.4.34.65.34v-.3a.506.506 0 01-.407-.214l-.244.174zm-2.165-3.095l2.163 3.094.246-.172-2.163-3.094-.246.172zm.186-1.088c-.34.247-.437.742-.184 1.09l.242-.176a.49.49 0 01.118-.671l-.176-.243zm3.096-2.165l-3.094 2.163.172.246 3.094-2.163-.172-.246zm1.087.186a.79.79 0 00-1.09-.184l.177.242a.49.49 0 01.67.118l.243-.176zm-.183 1.09c.339-.247.436-.742.184-1.09l-.243.176a.49.49 0 01-.118.671l.177.243zm-1.902 1.342l1.9-1.34-.173-.246-1.9 1.341.173.245zm9.63-.277a22.77 22.77 0 01-9.685.008l-.063.293c3.23.701 6.583.698 9.812-.008l-.064-.293zm.933.593a.78.78 0 00-.935-.593l.068.293a.48.48 0 01.574.363l.293-.063zm-.593.933a.767.767 0 00.593-.933l-.293.063a.468.468 0 01-.363.576l.063.294zm-5.213.582c1.747 0 3.494-.203 5.214-.582l-.065-.293a23.91 23.91 0 01-5.15.575v.3zm4.798-47.084l-1.309-1.705-.238.182 1.31 1.705.237-.182zm-1.306-1.702a.486.486 0 01.092-.671l-.176-.243c-.349.253-.406.751-.16 1.09l.244-.176zm.092-.671a.486.486 0 01.671.093l.243-.177c-.254-.348-.751-.405-1.09-.159l.176.243zm.673.095l2.29 2.994.238-.182-2.29-2.994-.238.182zm2.287 2.99a.486.486 0 01-.093.672l.177.242c.348-.253.405-.75.159-1.09l-.243.177zm-.096.674l-2.993 2.289.182.238 2.994-2.289-.183-.238zm-2.992 2.288a.468.468 0 01-.287.096v.3a.768.768 0 00.467-.156l-.18-.24zm-.287.096a.473.473 0 01-.479-.479h-.3c0 .435.344.779.779.779v-.3zm-.479-.479c0-.148.074-.285.198-.388l-.192-.23a.806.806 0 00-.306.618h.3zm.193-.384l1.844-1.416-.183-.238-1.844 1.416.183.238zm1.783-1.682a23.072 23.072 0 00-9.578.058l.064.293c3.11-.68 6.337-.7 9.453-.057l.06-.294zm-9.58.058a.48.48 0 01-.574-.363l-.293.063a.78.78 0 00.935.593l-.068-.293zm-.575-.365a.48.48 0 01.364-.574l-.063-.294a.78.78 0 00-.593.935l.292-.067zm.365-.575A23.746 23.746 0 0151 24.575l.059-.294a24.043 24.043 0 00-9.898.107l.065.292z" fill="#243C70"/><path d="M65.466 73.433a6.994 6.994 0 01-6.992-6.992 6.978 6.978 0 016.992-6.993 6.978 6.978 0 016.993 6.993c-.025 3.873-3.144 6.992-6.993 6.992z" fill="#fff"/><path d="M65.468 70.868a.623.623 0 01-.63-.629v-3.748c0-.352.278-.629.63-.629s.629.277.629.63v3.747a.623.623 0 01-.63.63z" fill="#243C70"/><path d="M65.467 66.692a.723.723 0 01-.453-.176l-2.415-2.414a.63.63 0 01-.025-.88c.226-.252.629-.252.88-.026l.026.025 1.962 1.962 1.962-1.962a.63.63 0 01.88-.025c.252.227.252.629.025.88l-.025.026-2.415 2.414a.507.507 0 01-.402.176z" fill="#243C70"/><path d="M67.58 67.12h-4.252a.623.623 0 01-.629-.629c0-.352.277-.629.63-.629h4.25c.352 0 .629.277.629.63a.623.623 0 01-.629.628zm0 1.987h-4.252a.623.623 0 01-.629-.629c0-.352.277-.628.63-.628h4.25c.352 0 .629.276.629.629a.623.623 0 01-.629.628z" fill="#243C70"/><path d="M27.533 73.433a6.994 6.994 0 010-13.985 6.978 6.978 0 016.993 6.993 6.994 6.994 0 01-6.993 6.992z" fill="#fff"/><path d="M28.742 70.793a4.332 4.332 0 01-4.301-4.377 4.349 4.349 0 014.301-4.302c.352 0 .629.277.629.63a.623.623 0 01-.629.628c-1.685.025-3.069 1.409-3.044 3.094.026 1.685 1.359 3.044 3.044 3.044.352 0 .629.276.629.628 0 .353-.277.654-.629.654z" fill="#243C70"/><path d="M28.087 65.888h-3.622a.623.623 0 01-.63-.63c0-.351.278-.628.63-.628h3.622c.352 0 .629.277.629.629a.623.623 0 01-.629.629zm0 2.414h-3.622a.623.623 0 01-.63-.629c0-.352.278-.629.63-.629h3.622c.352 0 .629.277.629.63a.623.623 0 01-.629.628z" fill="#243C70"/><path d="M65.466 35.526a6.994 6.994 0 010-13.986 6.978 6.978 0 016.993 6.993c-.025 3.849-3.144 6.993-6.993 6.993z" fill="#fff"/><path d="M66.046 29.79h-2.944a.623.623 0 01-.628-.628c0-.352.276-.629.629-.629h2.943c.352 0 .628.277.628.63a.623.623 0 01-.629.628zm0-1.986h-2.944a.623.623 0 01-.628-.629c0-.352.276-.629.629-.629h2.943c.352 0 .628.277.628.63a.623.623 0 01-.629.628zm.073 4.478h-3.346a.623.623 0 01-.629-.63c0-.352.277-.628.63-.628h3.345c.604 0 1.182-.302 1.56-.78a.636.636 0 01.88-.126.635.635 0 01.126.88c-.63.806-1.56 1.284-2.566 1.284z" fill="#243C70"/><path d="M63.53 32.282a.623.623 0 01-.63-.63v-.125l1.057-5.735a1.942 1.942 0 012.264-1.56c.05 0 .1.025.15.025.328.076.529.428.454.755-.076.327-.428.528-.755.453a.698.698 0 00-.855.503v.05l-1.057 5.735c-.075.327-.327.529-.629.529z" fill="#243C70"/><path d="M27.533 35.526a6.994 6.994 0 010-13.986 6.994 6.994 0 016.993 6.993c0 3.849-3.145 6.993-6.993 6.993z" fill="#fff"/><path d="M28.312 31.98h-2.515a.623.623 0 01-.629-.63c0-.351.277-.628.629-.628h2.515a.81.81 0 00.805-.805.81.81 0 00-.805-.805h-1.584a2.072 2.072 0 01-2.063-2.063c0-1.131.93-2.062 2.063-2.062h2.238c.353 0 .63.277.63.629a.623.623 0 01-.63.628h-2.238a.81.81 0 00-.805.805.81.81 0 00.805.805h1.584c1.132 0 2.063.931 2.063 2.063a2.056 2.056 0 01-2.063 2.063z" fill="#243C70"/><path d="M27.534 32.96a.623.623 0 01-.629-.628v-7.647c0-.352.277-.629.63-.629.351 0 .628.277.628.629v7.647a.639.639 0 01-.629.629z" fill="#243C70"/></g><defs><linearGradient id="paint0_linear_223_0" x1="5.364" y1="23.023" x2="86.921" y2="80.514" gradientUnits="userSpaceOnUse"><stop stop-color="#CCEEE3"/><stop offset="1" stop-color="#B1C9F6"/></linearGradient><clipPath id="clip0_223_0"><path fill="#fff" d="M0 0h93v93H0z"/></clipPath></defs></svg>