<svg width="116" height="116" fill="none" xmlns="http://www.w3.org/2000/svg"><path d="M70.25 20.244C65.397 8.311 53.65-.084 39.955.001 22.48.108 8.114 14.203 7.689 31.67a32.36 32.36 0 008.232 22.426c4.219 4.725 6.336 10.948 6.122 17.28a43.653 43.653 0 00-.011 2.541C22.59 96.892 42.215 116.014 65.196 116c23.819-.014 43.123-19.328 43.123-43.15 0-17.462-10.373-32.5-25.292-39.292A24.916 24.916 0 0170.25 20.244z" fill="url(#paint0_linear_361_212)"/><path opacity=".1" d="M106.359 67.956H90.093a34.945 34.945 0 001.214-3.93l8.77-2.497a1.737 1.737 0 001.261-1.67v-8.476c0-.776-.515-1.457-1.261-1.67l-8.77-2.497a34.954 34.954 0 00-4.059-9.797l4.436-7.969a1.737 1.737 0 00-.29-2.072l-5.992-5.993a1.737 1.737 0 00-2.073-.29l-7.968 4.436a34.977 34.977 0 00-9.797-4.059l-2.498-8.77a1.736 1.736 0 00-1.67-1.26H52.92c-.776 0-1.458.514-1.67 1.26l-2.498 8.77a34.933 34.933 0 00-9.128 3.67V13.865a2.271 2.271 0 00-2.271-2.271H9.64a2.271 2.271 0 00-2.27 2.27v22.04a2.271 2.271 0 002.27 2.271h16.99a34.939 34.939 0 00-3.62 9.042l-8.77 2.497a1.736 1.736 0 00-1.261 1.67v8.476c0 .776.514 1.457 1.26 1.67l8.77 2.498c.86 3.5 2.24 6.796 4.06 9.796l-4.436 7.969a1.737 1.737 0 00.289 2.072l5.993 5.993a1.736 1.736 0 002.072.29l7.969-4.436c3 1.82 6.296 3.2 9.797 4.059l2.497 8.77c.213.746.895 1.26 1.67 1.26h8.476c.776 0 1.457-.514 1.67-1.26l2.498-8.77a34.935 34.935 0 004.013-1.248v3.745a2.271 2.271 0 002.271 2.27h34.511a2.271 2.271 0 002.271-2.27v-22.04a2.271 2.271 0 00-2.271-2.27z" fill="#242F4D"/><path d="M101.338 64.617V56.14c0-.776-.515-1.457-1.261-1.67l-8.77-2.498a34.954 34.954 0 00-4.059-9.796l4.436-7.969a1.737 1.737 0 00-.29-2.072l-5.993-5.993a1.737 1.737 0 00-2.072-.29L75.36 30.29a34.948 34.948 0 00-9.797-4.059l-2.498-8.77a1.736 1.736 0 00-1.67-1.26H52.92c-.776 0-1.458.514-1.67 1.26l-2.498 8.77a34.925 34.925 0 00-9.797 4.06l-7.969-4.436a1.737 1.737 0 00-2.072.289l-5.993 5.993a1.736 1.736 0 00-.29 2.072l4.436 7.969c-1.82 3-3.2 6.296-4.059 9.796l-8.77 2.498a1.736 1.736 0 00-1.26 1.67v8.476c0 .775.514 1.457 1.26 1.67l8.77 2.497a34.938 34.938 0 004.06 9.797l-4.436 7.969a1.737 1.737 0 00.289 2.072l5.993 5.993a1.736 1.736 0 002.072.29l7.969-4.436c3 1.819 6.296 3.2 9.796 4.059l2.498 8.77c.213.746.895 1.26 1.67 1.26h8.476c.776 0 1.457-.514 1.67-1.26l2.498-8.77a34.98 34.98 0 009.797-4.06l7.968 4.436c.678.378 1.524.26 2.073-.289l5.992-5.993a1.736 1.736 0 00.29-2.072l-4.436-7.969c1.82-3 3.2-6.296 4.06-9.797l8.769-2.498a1.736 1.736 0 001.261-1.67z" fill="#78B5EE"/><path d="M39.625 29.895V44a2.271 2.271 0 01-2.27 2.27H24.94a35.165 35.165 0 012.128-4.094l-4.436-7.968a1.74 1.74 0 01.29-2.073l5.992-5.993a1.74 1.74 0 012.073-.29l7.968 4.436c.22-.134.444-.265.669-.394z" fill="#CCA1FF"/><path d="M57.158 81.676c11.762 0 21.297-9.535 21.297-21.297S68.92 39.082 57.158 39.082s-21.297 9.535-21.297 21.297 9.535 21.297 21.297 21.297z" fill="#CCEEE3"/><path d="M57.158 77.912c9.683 0 17.533-7.85 17.533-17.533 0-9.683-7.85-17.533-17.533-17.533-9.683 0-17.533 7.85-17.533 17.533 0 9.683 7.85 17.533 17.533 17.533z" fill="#02BF7F"/><path d="M57.158 88.02c-15.24 0-27.64-12.4-27.64-27.641a1.133 1.133 0 012.265 0c0 13.992 11.383 25.375 25.375 25.375a1.133 1.133 0 010 2.265zm26.508-26.508a1.133 1.133 0 01-1.133-1.133c0-13.992-11.383-25.375-25.375-25.375a1.133 1.133 0 010-2.266c15.241 0 27.64 12.4 27.64 27.64 0 .626-.507 1.134-1.132 1.134z" fill="#CCEEE3"/><path d="M51.861 64.239c-.29 0-.58-.111-.8-.332l-2.727-2.727a1.133 1.133 0 010-1.602l2.726-2.727a1.133 1.133 0 111.602 1.602l-1.925 1.926 1.925 1.926a1.133 1.133 0 01-.8 1.934zm10.594 0a1.133 1.133 0 01-.8-1.934l1.925-1.926-1.926-1.926a1.133 1.133 0 111.602-1.602l2.727 2.727c.442.442.442 1.16 0 1.602l-2.727 2.727c-.221.22-.511.332-.801.332zm-6.837 0a1.133 1.133 0 01-.985-1.69l3.08-5.454a1.133 1.133 0 011.972 1.114l-3.08 5.453a1.13 1.13 0 01-.987.577zM37.354 42.932H9.64a2.271 2.271 0 01-2.27-2.27v-22.04a2.271 2.271 0 012.27-2.271h27.714a2.271 2.271 0 012.27 2.27v22.04a2.27 2.27 0 01-2.27 2.271z" fill="#F5F4F9"/><path d="M37.355 16.35h-7.74v26.582h7.74a2.271 2.271 0 002.27-2.27v-22.04a2.271 2.271 0 00-2.27-2.271z" fill="#FFE783"/><path d="M39.625 23.77v-5.148a2.271 2.271 0 00-2.271-2.271H9.64a2.271 2.271 0 00-2.27 2.27v5.149h32.255z" fill="#2A8CFF"/><path d="M25.051 37.63H13.788a1.135 1.135 0 010-2.271H25.05a1.135 1.135 0 110 2.27zm-6.131-4.714h-5.132a1.135 1.135 0 010-2.27h5.131a1.135 1.135 0 010 2.27z" fill="#DDD9E4"/><path d="M106.36 99.296H71.85a2.271 2.271 0 01-2.272-2.271v-22.04a2.271 2.271 0 012.271-2.27h34.511a2.271 2.271 0 012.271 2.27v22.04a2.271 2.271 0 01-2.271 2.27z" fill="#F5F4F9"/><path d="M108.631 80.133v-5.148a2.271 2.271 0 00-2.271-2.27H71.85a2.271 2.271 0 00-2.272 2.27v5.148h39.053z" fill="#2A8CFF"/><path d="M106.359 71.581H91.686a36.2 36.2 0 00.557-1.885l8.144-2.32a2.881 2.881 0 002.084-2.76v-8.474c0-1.276-.857-2.41-2.084-2.76l-8.144-2.32a36.049 36.049 0 00-3.689-8.904l4.12-7.399a2.881 2.881 0 00-.479-3.424l-5.992-5.993a2.881 2.881 0 00-3.425-.478l-7.4 4.119a36.045 36.045 0 00-8.903-3.69l-2.32-8.143a2.881 2.881 0 00-2.76-2.083H52.92c-1.275 0-2.41.857-2.76 2.083l-2.319 8.144a36.104 36.104 0 00-7.084 2.702v-9.374a3.408 3.408 0 00-3.403-3.404H9.64a3.408 3.408 0 00-3.404 3.404v5.147c0 .626.508 1.133 1.133 1.133h31.123v15.759a1.14 1.14 0 01-1.138 1.138H9.64a1.14 1.14 0 01-1.138-1.138V30.009a1.133 1.133 0 00-2.266 0V40.66a3.408 3.408 0 003.404 3.404h15.093a36.107 36.107 0 00-2.66 6.997l-8.144 2.32a2.881 2.881 0 00-2.083 2.76v8.474c0 1.276.857 2.41 2.083 2.76l8.144 2.32a36.055 36.055 0 003.689 8.903l-4.12 7.4a2.88 2.88 0 00.479 3.424l5.993 5.993a2.881 2.881 0 003.424.478l7.4-4.119a36.054 36.054 0 008.904 3.69l2.319 8.142a2.881 2.881 0 002.76 2.084h8.475c1.275 0 2.41-.857 2.76-2.084l2.319-8.143a36.307 36.307 0 001.97-.585v2.145a3.408 3.408 0 003.403 3.404h34.511a3.407 3.407 0 003.403-3.404v-22.04a3.406 3.406 0 00-3.403-3.403zM8.502 22.637v-4.015c0-.628.51-1.139 1.138-1.139h27.714a1.14 1.14 0 011.138 1.139v4.015H8.502zm56.792 70.79a1.133 1.133 0 00-.82.79l-2.497 8.77a.606.606 0 01-.581.439H52.92a.606.606 0 01-.58-.438l-2.498-8.77a1.133 1.133 0 00-.82-.79 33.803 33.803 0 01-9.48-3.927 1.133 1.133 0 00-1.137-.022l-7.969 4.436a.606.606 0 01-.72-.1l-5.993-5.993a.606.606 0 01-.101-.72l4.436-7.97c.198-.355.19-.79-.021-1.138a33.796 33.796 0 01-3.928-9.479 1.133 1.133 0 00-.79-.82l-8.77-2.497a.606.606 0 01-.438-.58v-8.476c0-.268.18-.507.438-.58l8.77-2.498c.392-.112.693-.425.79-.82a33.843 33.843 0 013.182-8.178h10.063a3.408 3.408 0 003.403-3.404V30.558c2.6-1.432 5.38-2.52 8.265-3.227.395-.097.708-.398.82-.79l2.497-8.77a.606.606 0 01.58-.438h8.476c.268 0 .507.18.58.439l2.498 8.77c.112.39.425.692.82.79a33.808 33.808 0 019.48 3.927c.347.21.782.219 1.137.02l7.969-4.435c.234-.13.53-.09.72.1l5.993 5.993c.19.19.232.487.1.721l-4.435 7.969c-.198.355-.19.79.021 1.138a33.8 33.8 0 013.928 9.48c.097.395.398.707.79.819l8.77 2.497a.607.607 0 01.438.581v8.475a.607.607 0 01-.439.58l-8.77 2.498a1.132 1.132 0 00-.79.82 34.042 34.042 0 01-.91 3.067H84.67a1.133 1.133 0 000 2.265h21.687c.628 0 1.139.51 1.139 1.138V79H70.71v-4.015c0-.627.51-1.138 1.138-1.138h6.583a1.133 1.133 0 000-2.265h-6.583a3.408 3.408 0 00-3.404 3.403v17.502a34.11 34.11 0 01-3.15.94zm41.065 4.736h-34.51a1.14 1.14 0 01-1.14-1.138v-15.76h36.788v15.76a1.14 1.14 0 01-1.138 1.138z" fill="#242F4D"/><path d="M77.737 93.115a1.131 1.131 0 01-1.078-.781l-1.554-4.76a1.133 1.133 0 012.154-.704l.738 2.262.414-.76a1.133 1.133 0 011.99 0l.414.76.739-2.262a1.133 1.133 0 112.154.704l-1.555 4.76a1.133 1.133 0 01-2.071.19l-.675-1.241-.676 1.24c-.2.367-.582.592-.994.592zm9.697 0a1.13 1.13 0 01-1.077-.781l-1.555-4.76a1.133 1.133 0 012.154-.704l.739 2.262.414-.76a1.133 1.133 0 011.99 0l.414.76.738-2.262a1.132 1.132 0 112.154.704l-1.554 4.76a1.133 1.133 0 01-2.072.19l-.675-1.241-.675 1.24c-.2.367-.583.592-.995.592zm13.036 0c-.411 0-.795-.225-.994-.591l-.675-1.241-.675 1.24a1.131 1.131 0 01-2.072-.19l-1.554-4.76a1.133 1.133 0 012.153-.703l.739 2.262.414-.76a1.133 1.133 0 011.99 0l.414.76.738-2.262a1.133 1.133 0 012.154.704l-1.554 4.76a1.133 1.133 0 01-1.078.78z" fill="#242F4D"/><path d="M100.358 45.486c-.29 0-.58-.11-.8-.331l-2.492-2.491a1.133 1.133 0 010-1.602l2.491-2.491a1.133 1.133 0 011.602 0l2.491 2.49c.442.443.442 1.16 0 1.603l-2.491 2.49a1.13 1.13 0 01-.801.332zm-.889-3.624l.889.89.889-.89-.889-.889-.889.89z" fill="#2A8CFF"/><path d="M80.953 21.1a1.133 1.133 0 01-1.133-1.134c0-.752-.612-1.364-1.365-1.364a1.133 1.133 0 010-2.266c.752 0 1.365-.612 1.365-1.365a1.133 1.133 0 012.265 0c0 .753.613 1.365 1.365 1.365a1.133 1.133 0 010 2.266c-.752 0-1.365.612-1.365 1.364 0 .626-.507 1.133-1.132 1.133z" fill="#06AD79"/><path d="M14.34 80.054a1.133 1.133 0 01-1.134-1.133c0-.752-.612-1.365-1.364-1.365a1.133 1.133 0 010-2.265c.752 0 1.364-.612 1.364-1.365a1.133 1.133 0 012.266 0c0 .753.612 1.365 1.365 1.365a1.133 1.133 0 010 2.266c-.753 0-1.365.612-1.365 1.364 0 .626-.507 1.133-1.133 1.133z" fill="#2A8CFF"/><path d="M12.652 92.223a1.133 1.133 0 01-1.133-1.133c0-.752-.612-1.365-1.365-1.365a1.133 1.133 0 010-2.265c.753 0 1.365-.612 1.365-1.365a1.133 1.133 0 012.266 0c0 .752.612 1.365 1.364 1.365a1.133 1.133 0 010 2.265c-.752 0-1.364.613-1.364 1.365 0 .625-.508 1.133-1.133 1.133z" fill="#06AD79"/><defs><linearGradient id="paint0_linear_361_212" x1="37.101" y1="58" x2="228.233" y2="58" gradientUnits="userSpaceOnUse"><stop offset=".001" stop-color="#CBEDE4"/><stop offset="1" stop-color="#B3CCF5"/></linearGradient></defs></svg>