<svg width="93" height="93" fill="none" xmlns="http://www.w3.org/2000/svg"><path d="M84.51 29.617c-2.7-3.145-4.477-6.967-5.308-11.027-.704-3.443-2.197-6.43-4.534-8.767C63.993-.853 39.745 6.086 20.51 25.32S-5.664 68.804 5.012 79.48c5.074 5.074 13.215 6.167 22.427 3.852 5.35-1.344 10.995-.778 16.037 1.459A35.098 35.098 0 0057.23 87.8c19.195.28 35.193-14.995 35.754-34.184a35.114 35.114 0 00-8.474-23.999z" fill="url(#paint0_linear_223_159)"/><path opacity=".1" d="M76.19 75.477H15.901a3.46 3.46 0 01-3.46-3.46V8.46A3.46 3.46 0 0115.902 5H76.19a3.46 3.46 0 013.46 3.46v63.557a3.46 3.46 0 01-3.46 3.46z" fill="#242F4D"/><path d="M76.19 78.549H15.901a3.46 3.46 0 01-3.46-3.46V11.532a3.46 3.46 0 013.46-3.46H76.19a3.46 3.46 0 013.46 3.46V75.09a3.46 3.46 0 01-3.46 3.46z" fill="#fff"/><path d="M79.65 18.279v-6.747a3.46 3.46 0 00-3.46-3.46H15.901a3.46 3.46 0 00-3.46 3.46v6.747H79.65z" fill="#1E80F3"/><path d="M76.19 7.164H15.901a4.373 4.373 0 00-4.368 4.368v57.381a.908.908 0 101.817 0V11.532a2.555 2.555 0 012.551-2.552H76.19a2.555 2.555 0 012.551 2.552v5.838H19.89a.908.908 0 000 1.817h58.85v55.902a2.555 2.555 0 01-2.552 2.552H15.902a2.555 2.555 0 01-2.551-2.552.908.908 0 10-1.817 0 4.373 4.373 0 004.368 4.368H76.19a4.373 4.373 0 004.368-4.368V11.532a4.373 4.373 0 00-4.369-4.368z" fill="#242F4D"/><path d="M72.111 14.084h-3a.908.908 0 110-1.817h3a.908.908 0 010 1.817z" fill="#02BF7F"/><path d="M65.118 14.084h-3a.908.908 0 110-1.817h3a.908.908 0 110 1.817z" fill="#F5CA2A"/><path d="M55.037 14.084H30.239a.908.908 0 110-1.817h24.798a.908.908 0 110 1.817z" fill="#EBEBFF"/><path d="M22.57 71.772H20.3a.908.908 0 110-1.816h2.27a.908.908 0 110 1.816zm16.893 0h-13.17a.908.908 0 010-1.816h13.17a.908.908 0 110 1.816zM28.02 68.643H20.3a.908.908 0 110-1.816h7.72a.908.908 0 110 1.816z" fill="#D9D9FF"/><path d="M22.57 64.143H20.3a.908.908 0 110-1.816h2.27a.908.908 0 110 1.816z" fill="#F5CA2A"/><path d="M65.129 71.772h-2.27a.908.908 0 110-1.816h2.27a.908.908 0 110 1.816zm0-3.129h-2.27a.908.908 0 110-1.816h2.27a.908.908 0 110 1.816z" fill="#D9D9FF"/><path d="M5.906 45.81a.906.906 0 01-.643-.265l-1.997-1.997a.908.908 0 010-1.285l1.997-1.997a.908.908 0 011.285 0l1.997 1.997a.908.908 0 010 1.285l-1.997 1.997a.905.905 0 01-.642.266zm-.713-2.904l.712.712.713-.712-.713-.713-.712.713zM51.906 90.81a.906.906 0 01-.643-.265l-1.997-1.997a.908.908 0 010-1.285l1.997-1.997a.908.908 0 011.285 0l1.997 1.997a.908.908 0 010 1.285l-1.997 1.997a.906.906 0 01-.642.266zm-.713-2.904l.712.712.713-.712-.713-.713-.712.713z" fill="#02BF7F"/><path d="M3.91 34.819A.908.908 0 013 33.91c0-.603-.49-1.093-1.093-1.093a.908.908 0 110-1.817C2.51 31 3 30.51 3 29.907a.908.908 0 111.817 0c0 .603.49 1.093 1.092 1.093a.908.908 0 110 1.817c-.602 0-1.092.49-1.092 1.093a.908.908 0 01-.909.908z" fill="#2A8CFF"/><path fill-rule="evenodd" clip-rule="evenodd" d="M30.328 34.703a.664.664 0 11-1.328 0v-7.039c0-.367.297-.664.664-.664h7.04a.664.664 0 110 1.328h-6.376v6.375zm3.719 11.29a.664.664 0 100-1.33.664.664 0 000 1.33zm14.61 0a.664.664 0 10-.001-1.33.664.664 0 000 1.33zm-11.29 14.343a.664.664 0 00-.664-.664h-6.375v-6.375a.664.664 0 10-1.328 0v7.039c0 .367.297.664.664.664h7.04a.664.664 0 00.663-.664zm24.305-7.04a.664.664 0 111.328 0v7.04a.664.664 0 01-.664.664h-7.04a.664.664 0 110-1.328h6.376v-6.375zM62.336 27h-7.04a.664.664 0 100 1.328h6.376v6.375a.664.664 0 101.328 0v-7.039a.664.664 0 00-.664-.664zm-28.29 29.617a.664.664 0 01-.663-.664v-6.64c0-.367.297-.665.664-.665h6.64c.367 0 .665.298.665.664v6.641a.664.664 0 01-.664.664h-6.641zm5.977-6.64h-5.312v5.312h5.312v-5.312zm.664-18.594h-6.64a.664.664 0 00-.664.664v6.64c0 .367.297.665.664.665h6.64a.664.664 0 00.665-.664v-6.641a.664.664 0 00-.664-.664zm-.664 6.64h-5.312v-5.312h5.312v5.312zm17.93-6.64c.367 0 .664.297.664.664v6.64a.664.664 0 01-.664.665h-6.64a.664.664 0 01-.665-.664v-6.641c0-.367.298-.664.664-.664h6.641zm.664 17.93a.664.664 0 00-.664-.665h-6.64a.664.664 0 00-.665.664v6.641c0 .367.298.664.664.664h6.641a.664.664 0 00.664-.664v-6.64zm-21.914 1.992h1.328c.367 0 .664.297.664.664v1.328a.664.664 0 01-.664.664h-1.328a.664.664 0 01-.664-.664v-1.328c0-.367.297-.664.664-.664zm0-14.61h1.328a.664.664 0 00.664-.664v-1.328a.664.664 0 00-.664-.664h-1.328a.664.664 0 00-.664.664v1.328c0 .367.297.664.664.664zm19.258-.664a.664.664 0 01-.664.664h-1.328a.664.664 0 01-.664-.664v-1.328c0-.367.297-.664.664-.664h1.328c.367 0 .664.297.664.664v1.328zm-3.984 1.992h5.312v-5.312h-5.312v5.312zm3.32 15.938a.664.664 0 00.664-.664v-1.328a.664.664 0 00-.664-.664h-1.328a.664.664 0 00-.664.664v1.328c0 .367.297.664.664.664h1.328zm1.992 1.328h-5.312v-5.312h5.312v5.312zm-20.586-9.297a.664.664 0 110-1.328H46c.367 0 .664.297.664.664v3.984a.664.664 0 11-1.328 0v-3.32h-8.633zm3.984-2.656a.664.664 0 100-1.328h-6.64a.664.664 0 100 1.328h6.64zm5.313 0h-2.656a.664.664 0 110-1.328H46a.664.664 0 110 1.328zm-2.656-11.953a.664.664 0 00-.664.664v6.64c0 .367.297.665.664.665h4.648v3.32c0 .367.297.664.664.664h2.657a.664.664 0 100-1.328H49.32v-3.32a.664.664 0 00-.664-.665h-4.648v-5.976a.664.664 0 00-.664-.664zm10.625 10.625h3.984a.664.664 0 110 1.328H53.97a.664.664 0 110-1.328zm3.984 2.656h-6.64a.664.664 0 100 1.328h6.64a.664.664 0 100-1.328zm-14.61 6.64H46a.664.664 0 110 1.329h-1.992v3.32a.664.664 0 11-1.328 0V51.97c0-.367.297-.664.664-.664zm4.65 3.985H46a.664.664 0 100 1.328h2.656a.664.664 0 00.664-.664v-7.969a.664.664 0 10-1.328 0v7.305zm1.327-19.258a.664.664 0 01-.664.664H46a.664.664 0 110-1.328h1.992v-3.32a.664.664 0 111.328 0v3.984zm-19.132-7.843h6.515a.524.524 0 100-1.048h-7.039a.524.524 0 00-.524.524v7.04a.524.524 0 101.048 0v-6.516zm0 31.624v-6.515a.524.524 0 10-1.048 0v7.039c0 .29.235.524.524.524h7.04a.524.524 0 100-1.048h-6.516zm31.624 0h-6.515a.524.524 0 100 1.048h7.039c.29 0 .524-.235.524-.524v-7.04a.524.524 0 10-1.048 0v6.516zm0-31.624v6.515a.524.524 0 101.048 0v-7.039a.524.524 0 00-.524-.524h-7.04a.524.524 0 100 1.048h6.516zM34.571 49.836h5.593v5.593H34.57v-5.593zm0-11.672V32.57h5.593v5.593H34.57zm22.858 0h-5.593V32.57h5.593v5.593zm-5.593 17.265v-5.593h5.593v5.593h-5.593zm-6.36-9.577v3.46a.524.524 0 101.048 0v-3.984a.524.524 0 00-.524-.524h-9.297a.524.524 0 100 1.048h8.773zm2.656-6.64v3.46c0 .29.235.524.524.524h2.657a.524.524 0 100-1.048H49.18v-3.46a.524.524 0 00-.524-.524h-4.788v-6.117a.524.524 0 10-1.048 0v6.64c0 .29.234.524.524.524h4.788zm-4.264 13.28H46a.524.524 0 100-1.047h-2.656a.524.524 0 00-.524.524v3.984a.524.524 0 101.048 0v-3.46zm4.264 2.937H46a.524.524 0 100 1.048h2.656c.29 0 .524-.234.524-.524v-7.969a.524.524 0 10-1.048 0v7.445zm0-19.922H46a.524.524 0 100 1.048h2.656c.29 0 .524-.234.524-.524v-3.984a.524.524 0 10-1.048 0v3.46zM34.047 45.852a.524.524 0 100-1.048.524.524 0 000 1.048zm14.61 0a.524.524 0 10-.001-1.048.524.524 0 000 1.048zm-11.954 13.82a.664.664 0 110 1.328h-7.039a.664.664 0 01-.664-.664v-7.04a.664.664 0 111.328 0v6.376h6.375zm18.594-31.344a.664.664 0 110-1.328h7.039c.367 0 .664.297.664.664v7.04a.664.664 0 11-1.328 0v-6.376h-6.375zM33.523 55.953c0 .29.234.524.524.524h6.64c.29 0 .524-.234.524-.524v-6.64a.524.524 0 00-.523-.524h-6.641a.524.524 0 00-.524.523v6.641zm7.164-24.43h-6.64a.524.524 0 00-.524.524v6.64c0 .29.234.524.524.524h6.64c.29 0 .524-.234.524-.523v-6.641a.524.524 0 00-.523-.524zm-.664 6.5h-5.312v-5.312h5.312v5.312zm18.454-5.976a.524.524 0 00-.524-.524h-6.64a.524.524 0 00-.524.524v6.64c0 .29.234.524.523.524h6.641c.29 0 .524-.234.524-.523v-6.641zm0 17.266a.524.524 0 00-.524-.524h-6.64a.524.524 0 00-.524.523v6.641c0 .29.234.524.523.524h6.641c.29 0 .524-.234.524-.524v-6.64zm-19.922 2.656a.524.524 0 00-.524-.524h-1.328a.524.524 0 00-.524.524v1.328c0 .29.235.524.524.524h1.328c.29 0 .524-.235.524-.524v-1.328zm-1.852-15.414h1.328c.29 0 .524-.234.524-.524v-1.328a.524.524 0 00-.524-.524h-1.328a.524.524 0 00-.524.524v1.328c0 .29.235.524.524.524zm18.594 0c.29 0 .524-.234.524-.524v-1.328a.524.524 0 00-.524-.524h-1.328a.524.524 0 00-.524.524v1.328c0 .29.234.524.524.524h1.328zm0 17.266c.29 0 .524-.235.524-.524v-1.328a.524.524 0 00-.524-.524h-1.328a.524.524 0 00-.524.524v1.328c0 .29.234.524.524.524h1.328zm1.992-3.844h-5.312v5.312h5.312v-5.312zm-16.602-6.781a.524.524 0 100-1.048h-6.64a.524.524 0 100 1.048h6.64zm2.657 0H46a.524.524 0 100-1.048h-2.656a.524.524 0 100 1.048zm0-3.844a.664.664 0 01-.664-.664v-6.641a.664.664 0 111.328 0v5.976h4.648c.367 0 .664.298.664.664v3.32h1.992a.664.664 0 110 1.329h-2.656a.664.664 0 01-.664-.664v-3.32h-4.648zm14.61 2.796h-3.985a.524.524 0 100 1.048h3.984a.524.524 0 100-1.048zm0 2.656h-6.642a.524.524 0 100 1.048h6.641a.524.524 0 100-1.048zm-9.962 3.18a.664.664 0 111.328 0v7.97a.664.664 0 01-.664.663H46a.664.664 0 110-1.328h1.992v-7.305zM29.664 35.367a.664.664 0 00.664-.664v-6.375h6.375a.664.664 0 100-1.328h-7.039a.664.664 0 00-.664.664v7.04c0 .366.297.663.664.663zm5.047 9.961a.664.664 0 11-1.329 0 .664.664 0 011.329 0zm14.61 0a.664.664 0 11-1.33 0 .664.664 0 011.33 0zm13.015 7.305a.664.664 0 00-.664.664v6.375h-6.375a.664.664 0 100 1.328h7.039a.664.664 0 00.664-.664v-7.04a.664.664 0 00-.664-.663zm-28.953 3.32c0 .367.297.664.664.664h6.64a.664.664 0 00.665-.664v-6.64a.664.664 0 00-.664-.665h-6.641a.664.664 0 00-.664.664v6.641zm6.64-5.976v5.312h-5.312v-5.312h5.312zm-5.976-18.594h6.64c.367 0 .665.297.665.664v6.64a.664.664 0 01-.664.665h-6.641a.664.664 0 01-.664-.664v-6.641c0-.367.297-.664.664-.664zm24.57.664a.664.664 0 00-.664-.664h-6.64a.664.664 0 00-.665.664v6.64c0 .367.298.665.664.665h6.641a.664.664 0 00.664-.664v-6.641zm-.664 16.601c.367 0 .664.298.664.664v6.641a.664.664 0 01-.664.664h-6.64a.664.664 0 01-.665-.664v-6.64c0-.367.298-.665.664-.665h6.641zm-19.922 2.657h-1.328a.664.664 0 00-.664.664v1.328c0 .367.297.664.664.664h1.328a.664.664 0 00.664-.664v-1.328a.664.664 0 00-.664-.664zm0-14.61h-1.328a.664.664 0 01-.664-.664v-1.328c0-.367.297-.664.664-.664h1.328c.367 0 .664.297.664.664v1.328a.664.664 0 01-.664.664zm17.266 0a.664.664 0 00.664-.664v-1.328a.664.664 0 00-.664-.664h-1.328a.664.664 0 00-.664.664v1.328c0 .367.297.664.664.664h1.328zm-3.32 1.328v-5.312h5.312v5.312h-5.312zm3.984 15.274a.664.664 0 01-.664.664h-1.328a.664.664 0 01-.664-.664v-1.328c0-.367.297-.664.664-.664h1.328c.367 0 .664.297.664.664v1.328zm-19.922-7.969c0 .367.297.664.664.664h8.633v3.32a.664.664 0 101.328 0v-3.984a.664.664 0 00-.664-.664h-9.297a.664.664 0 00-.664.664zm5.313-2.656a.664.664 0 01-.664.664h-6.641a.664.664 0 110-1.328h6.64c.367 0 .665.297.665.664zm1.992.664H46a.664.664 0 100-1.328h-2.656a.664.664 0 100 1.328zm14.61-1.328h-3.985a.664.664 0 100 1.328h3.984a.664.664 0 100-1.328zm-6.642 2.656h6.641a.664.664 0 110 1.328h-6.64a.664.664 0 110-1.328zM46 51.304h-2.656a.664.664 0 00-.664.665v3.984a.664.664 0 101.328 0v-3.32H46a.664.664 0 100-1.328zm2.656-14.609a.664.664 0 00.664-.664v-3.984a.664.664 0 10-1.328 0v3.32H46a.664.664 0 100 1.328h2.656z" fill="#2A8CFF" stroke="#2A8CFF" stroke-width=".5"/><defs><linearGradient id="paint0_linear_223_159" x1="-4.5" y1="37" x2="93" y2="82" gradientUnits="userSpaceOnUse"><stop offset=".002" stop-color="#CBEDE4"/><stop offset="1" stop-color="#B4CDF5"/></linearGradient></defs></svg>