<svg width="116" height="116" fill="none" xmlns="http://www.w3.org/2000/svg"><path d="M114.556 65.011c-2.679-7.841-8.641-13.63-15.826-16.358a9.689 9.689 0 01-6.25-8.933 25.492 25.492 0 00-.005-.262c-.341-14.631-12.572-26.356-27.205-26.104-8.63.148-16.264 4.385-21.049 10.857-4.12 5.573-10.533 9.054-17.463 9.05-.204 0-.407.002-.612.007C12.118 33.574.19 45.611.002 59.641-.197 74.578 11.852 86.75 26.744 86.75c11.543 0 21.376-7.313 25.123-17.558.98-2.681 3.886-4.118 6.634-3.347l.103.029a5.46 5.46 0 013.976 5.69 26.642 26.642 0 001.314 10.603c4.65 13.85 19.753 21.452 33.643 16.92 14.208-4.637 21.836-19.98 17.019-34.076z" fill="url(#paint0_linear_361_162)"/><path opacity=".1" d="M104.348 81.686l-3.688-1.05a14.693 14.693 0 00-1.708-4.12l1.866-3.352a.731.731 0 00-.122-.871l-2.52-2.52a.732.732 0 00-.872-.123l-3.351 1.866a14.69 14.69 0 00-4.12-1.707l-1.05-3.688a.73.73 0 00-.704-.53h-1.782V9.633a3.397 3.397 0 00-3.396-3.396H33.092a3.397 3.397 0 00-3.396 3.396v7.722H20.2a3.4 3.4 0 00-3.396 3.396v71.142A3.398 3.398 0 0020.2 95.29h49.81a3.38 3.38 0 002.119-.745l-.353.632a.732.732 0 00.122.872l2.52 2.52c.231.231.588.28.872.123l3.352-1.866a14.697 14.697 0 004.12 1.707l1.05 3.688c.09.314.377.531.703.531h3.564a.731.731 0 00.704-.531l1.05-3.688a14.693 14.693 0 004.12-1.707l3.351 1.866a.732.732 0 00.872-.122l2.52-2.52a.731.731 0 00.122-.873l-1.866-3.35a14.69 14.69 0 001.708-4.121l3.688-1.05a.73.73 0 00.53-.703v-3.564a.73.73 0 00-.53-.703zM73.38 92.296a3.34 3.34 0 00.026-.403v-.472c.077.136.155.272.236.405l-.262.47zm12.917-2.28a5.845 5.845 0 01-5.844-5.844H82.9a3.397 3.397 0 003.396-3.397v-2.449a5.845 5.845 0 010 11.69z" fill="#242F4D"/><path d="M73.407 25.51v71.142a3.398 3.398 0 01-3.397 3.396H20.2a3.398 3.398 0 01-3.396-3.396V25.51a3.4 3.4 0 013.396-3.397h49.81a3.4 3.4 0 013.397 3.397z" fill="#fff"/><path d="M67.865 67.326V39.25a.68.68 0 00-.68-.68H23.024a.68.68 0 00-.68.68v28.074c0 .376.305.68.68.68h44.163a.68.68 0 00.679-.68z" fill="#FFE783"/><path d="M73.405 57.02v35.67H33.092a3.397 3.397 0 01-3.397-3.396V57.02h43.71z" fill="#CCEEE3"/><path d="M73.406 33.02v-7.511a3.396 3.396 0 00-3.396-3.396H20.2a3.396 3.396 0 00-3.395 3.396v7.51h56.601z" fill="#242F4D"/><path d="M86.297 14.391v71.143A3.397 3.397 0 0182.9 88.93H33.09a3.397 3.397 0 01-3.396-3.396V14.39a3.397 3.397 0 013.397-3.396H82.9a3.397 3.397 0 013.396 3.396z" fill="#CCEEE3"/><path d="M29.695 80.166v5.368a3.397 3.397 0 003.397 3.396H82.9a3.397 3.397 0 003.396-3.396v-5.368H29.695z" fill="#78B5EE"/><path d="M42.053 10.995h-8.961a3.397 3.397 0 00-3.397 3.396v71.143a3.397 3.397 0 003.397 3.396h8.961V10.995z" fill="#fff"/><path d="M86.297 21.901v-7.51a3.396 3.396 0 00-3.396-3.396H33.09a3.396 3.396 0 00-3.396 3.396v7.51h56.602z" fill="#2A8CFF"/><path d="M104.346 86.444l-3.687-1.05a14.718 14.718 0 00-1.708-4.12l1.866-3.352a.733.733 0 00-.122-.871l-2.52-2.52a.732.732 0 00-.872-.123l-3.352 1.866a14.697 14.697 0 00-4.12-1.707l-1.05-3.688a.73.73 0 00-.703-.53h-3.564a.73.73 0 00-.703.53l-1.05 3.688a14.693 14.693 0 00-4.12 1.707l-3.352-1.865a.732.732 0 00-.872.121l-2.52 2.52a.731.731 0 00-.122.873l1.866 3.35a14.694 14.694 0 00-1.708 4.121l-3.687 1.05a.73.73 0 00-.531.703v3.564a.73.73 0 00.53.704l3.688 1.05a14.69 14.69 0 001.708 4.12l-1.866 3.351a.732.732 0 00.122.872l2.52 2.52a.73.73 0 00.872.122l3.351-1.866a14.664 14.664 0 004.12 1.708l1.05 3.688a.73.73 0 00.704.53h3.564a.73.73 0 00.703-.53l1.05-3.688a14.669 14.669 0 004.12-1.708l3.352 1.866a.731.731 0 00.872-.122l2.52-2.52a.731.731 0 00.122-.872l-1.866-3.351a14.721 14.721 0 001.708-4.12l3.687-1.05a.73.73 0 00.531-.704v-3.564a.73.73 0 00-.531-.703zm-18.05 8.33a5.845 5.845 0 110-11.69 5.845 5.845 0 010 11.69zM22.547 13.911a1.133 1.133 0 01-1.133-1.133c0-.75-.61-1.36-1.36-1.36a1.133 1.133 0 110-2.265c.75 0 1.36-.61 1.36-1.36a1.133 1.133 0 112.266 0c0 .75.61 1.36 1.36 1.36a1.133 1.133 0 110 2.265c-.75 0-1.36.61-1.36 1.36 0 .626-.507 1.133-1.133 1.133zM93.301 25.74h9.26a1.161 1.161 0 000-2.321h-9.26a1.16 1.16 0 100 2.321z" fill="#02BF7F"/><path d="M93.301 29.819h4.502a1.16 1.16 0 000-2.322H93.3a1.16 1.16 0 100 2.322zm0 4.078h4.502a1.16 1.16 0 100-2.321H93.3a1.16 1.16 0 100 2.321z" fill="#242F4D"/><path d="M93.301 42.054h9.26a1.161 1.161 0 000-2.321h-9.26a1.16 1.16 0 100 2.321z" fill="#02BF7F"/><path d="M93.301 46.133h4.502a1.16 1.16 0 100-2.321H93.3a1.16 1.16 0 100 2.321zm0 4.079h4.502a1.16 1.16 0 100-2.322H93.3a1.16 1.16 0 100 2.322zm9.262-14.558h-4.502a1.16 1.16 0 100 2.322h4.502a1.16 1.16 0 000-2.322z" fill="#242F4D"/><path d="M93.301 58.369h9.26a1.161 1.161 0 100-2.322h-9.26a1.16 1.16 0 100 2.322z" fill="#02BF7F"/><path d="M93.301 62.447h4.502a1.16 1.16 0 000-2.32H93.3a1.16 1.16 0 100 2.32zm0 4.079h4.502a1.16 1.16 0 000-2.321H93.3a1.16 1.16 0 100 2.321zm9.262-14.557h-4.502a1.16 1.16 0 100 2.321h4.502a1.16 1.16 0 000-2.321zM55.286 29.916a1.917 1.917 0 00-1.868-1.47h-1.109c-.89 0-1.658.604-1.868 1.47l-2.31 9.543a1.133 1.133 0 002.203.533l1.018-4.207h3.023l1.017 4.207a1.134 1.134 0 002.203-.533l-2.309-9.543zm-3.385 3.603l.68-2.807h.567l.68 2.807H51.9zm12.733-5.074h-3.999c-.626 0-1.133.507-1.133 1.133v10.147a1.133 1.133 0 102.266 0v-3.313h2.866c1.06 0 1.922-.862 1.922-1.922v-4.123c0-1.06-.862-1.922-1.922-1.922zm-.344 5.7h-2.522v-3.434h2.522v3.435zm7.426 4.514v-8.015a1.13 1.13 0 00-.37-2.2H69.82a1.13 1.13 0 00-.369 2.2v8.015a1.13 1.13 0 00.37 2.199h1.525a1.13 1.13 0 00.37-2.199zm4.392 2.223a1.133 1.133 0 01-1.133-1.133v-.033a1.133 1.133 0 012.266 0v.033c0 .626-.508 1.133-1.133 1.133zm-23.729 9.227h-3.565c-.592 0-1.122.433-1.178 1.023a1.135 1.135 0 001.13 1.246h3.613a1.135 1.135 0 100-2.269z" fill="#242F4D"/><path d="M66.07 50.109h-8.476a1.135 1.135 0 100 2.27h8.525c.663 0 1.194-.57 1.13-1.247-.057-.59-.586-1.023-1.179-1.023z" fill="#02BF7F"/><path d="M60.536 54.86H48.814c-.592 0-1.122.432-1.178 1.022a1.135 1.135 0 001.13 1.246h11.77a1.135 1.135 0 000-2.269z" fill="#242F4D"/><path d="M72.867 54.86H65.75a1.135 1.135 0 100 2.268h7.166c.663 0 1.194-.57 1.129-1.246-.056-.59-.585-1.023-1.178-1.023z" fill="#02BF7F"/><path d="M57.137 59.61h-8.323c-.592 0-1.122.433-1.178 1.022a1.135 1.135 0 001.13 1.247h8.371a1.135 1.135 0 100-2.27z" fill="#242F4D"/><path d="M66.07 59.61h-3.72a1.135 1.135 0 000 2.269h3.767c.664 0 1.194-.57 1.13-1.246-.056-.59-.586-1.024-1.178-1.024zm6.798 4.75H58.953a1.135 1.135 0 100 2.269h13.963c.664 0 1.194-.57 1.13-1.246-.057-.59-.586-1.023-1.178-1.023z" fill="#02BF7F"/><path d="M53.738 64.36h-4.924c-.592 0-1.122.433-1.178 1.022a1.135 1.135 0 001.13 1.247h4.972a1.135 1.135 0 100-2.27z" fill="#242F4D"/><path d="M104.657 85.355l-3.07-.874a15.805 15.805 0 00-1.333-3.217l1.554-2.791a1.872 1.872 0 00-.312-2.223l-2.52-2.52a1.873 1.873 0 00-2.224-.311l-2.79 1.553a15.827 15.827 0 00-3.217-1.333l-.874-3.07a1.872 1.872 0 00-1.793-1.354h-.649V14.391A4.534 4.534 0 0082.9 9.862H33.091a4.534 4.534 0 00-4.529 4.529v6.589h-8.361a4.534 4.534 0 00-4.53 4.529v7.509c0 .626.508 1.134 1.134 1.134h11.757v51.38a4.534 4.534 0 004.53 4.53h28.387a1.133 1.133 0 000-2.266H33.091a2.266 2.266 0 01-2.263-2.263V23.034h54.336v46.181h-.65c-.828 0-1.565.557-1.792 1.354l-.874 3.07a15.81 15.81 0 00-3.217 1.333l-2.791-1.554a1.872 1.872 0 00-2.223.312l-2.52 2.52a1.872 1.872 0 00-.311 2.224l1.553 2.79a15.806 15.806 0 00-1.333 3.216l-3.07.874a1.872 1.872 0 00-1.353 1.793v3.564a1.87 1.87 0 001.353 1.792l3.07.874a15.806 15.806 0 001.333 3.217l-1.082 1.944c-.37.245-.798.376-1.247.376H20.2a2.266 2.266 0 01-2.262-2.263V39.26a1.133 1.133 0 10-2.266 0v57.39a4.534 4.534 0 004.529 4.53H70.01c.25 0 .496-.02.737-.06.088.178.204.343.35.489l2.52 2.52c.585.585 1.5.713 2.224.311l2.79-1.553a15.865 15.865 0 003.217 1.333l.874 3.07a1.871 1.871 0 001.793 1.353h3.563c.829 0 1.566-.556 1.793-1.353l.874-3.07a15.806 15.806 0 003.217-1.333l2.79 1.553a1.872 1.872 0 002.224-.311l2.52-2.52a1.873 1.873 0 00.311-2.224l-1.553-2.79a15.868 15.868 0 001.333-3.217l3.07-.874a1.871 1.871 0 001.353-1.793v-3.563a1.87 1.87 0 00-1.353-1.793zM28.562 31.886H17.937V25.51a2.266 2.266 0 012.264-2.263h8.361v8.64zm2.266-11.118v-6.377a2.266 2.266 0 012.263-2.263h49.81a2.266 2.266 0 012.263 2.263v6.377H30.828zm72.917 69.64l-3.396.967a1.133 1.133 0 00-.79.82 13.55 13.55 0 01-1.576 3.802 1.13 1.13 0 00-.021 1.138l1.718 3.086-2.091 2.091-3.086-1.718a1.133 1.133 0 00-1.138.022 13.562 13.562 0 01-3.803 1.575 1.136 1.136 0 00-.82.79l-.967 3.396h-2.957l-.967-3.395a1.132 1.132 0 00-.82-.79 13.57 13.57 0 01-3.803-1.576 1.133 1.133 0 00-1.138-.021l-3.086 1.717-2.09-2.091 1.717-3.085c.198-.356.19-.79-.02-1.139a13.544 13.544 0 01-1.577-3.802 1.133 1.133 0 00-.79-.82l-3.396-.967v-2.957l3.396-.967c.392-.112.693-.425.79-.82.33-1.341.86-2.62 1.576-3.802.211-.349.22-.783.021-1.139l-1.718-3.085 2.091-2.092 3.086 1.718c.355.198.79.19 1.138-.02a13.542 13.542 0 013.803-1.577c.395-.097.708-.398.82-.79l.967-3.395h2.957l.967 3.395c.112.392.425.693.82.79 1.341.33 2.62.86 3.803 1.576.348.211.783.22 1.138.021l3.086-1.718 2.09 2.091-1.717 3.086c-.198.356-.19.79.021 1.139a13.55 13.55 0 011.576 3.802c.097.395.399.708.79.82l3.396.967v2.957z" fill="#242F4D"/><path d="M86.296 81.952a6.985 6.985 0 00-6.978 6.977 6.985 6.985 0 006.978 6.977 6.985 6.985 0 006.977-6.977 6.985 6.985 0 00-6.977-6.977zm-1.133 2.409v1.172a2.266 2.266 0 01-2.264 2.263h-1.172a4.721 4.721 0 013.436-3.435zm1.133 9.28a4.716 4.716 0 01-4.569-3.58H82.9a4.534 4.534 0 004.53-4.528v-1.172a4.716 4.716 0 013.578 4.568 4.717 4.717 0 01-4.711 4.712zm-60.87-64.926c.625 0 1.133-.507 1.133-1.133v-.033a1.133 1.133 0 00-2.266 0v.033c0 .626.507 1.133 1.133 1.133zm12.89-13.416c-.625 0-1.132.507-1.132 1.133v.033a1.133 1.133 0 102.265 0v-.033c0-.626-.507-1.133-1.133-1.133zm4.377 0c-.625 0-1.133.507-1.133 1.133v.033a1.133 1.133 0 102.266 0v-.033c0-.626-.507-1.133-1.133-1.133zm4.375 0c-.625 0-1.133.507-1.133 1.133v.033a1.133 1.133 0 102.266 0v-.033c0-.626-.507-1.133-1.133-1.133zM37.006 51.227a1.133 1.133 0 00-2.266 0v.033a1.133 1.133 0 002.266 0v-.033zm-1.133 13.118c-.625 0-1.133.507-1.133 1.133v.033a1.133 1.133 0 002.266 0v-.033c0-.626-.507-1.133-1.133-1.133z" fill="#242F4D"/><path d="M96.9 17.11c-.29 0-.58-.11-.802-.332l-2.49-2.49a1.133 1.133 0 010-1.603l2.49-2.491a1.132 1.132 0 011.603 0l2.491 2.491c.442.442.442 1.16 0 1.602l-2.491 2.491a1.129 1.129 0 01-.801.332zm-.89-3.624l.89.89.888-.89-.889-.89-.889.89z" fill="#02BF7F"/><path d="M106.219 73.977a1.133 1.133 0 01-1.133-1.133c0-.751-.612-1.363-1.363-1.363a1.133 1.133 0 110-2.266c.751 0 1.363-.611 1.363-1.363a1.133 1.133 0 112.266 0c0 .752.611 1.363 1.363 1.363a1.133 1.133 0 010 2.266c-.752 0-1.363.611-1.363 1.363 0 .626-.508 1.133-1.133 1.133zM9.781 38.28a1.133 1.133 0 01-1.133-1.133c0-.751-.611-1.363-1.363-1.363a1.133 1.133 0 110-2.265c.752 0 1.363-.612 1.363-1.364a1.133 1.133 0 012.266 0c0 .752.611 1.364 1.363 1.364a1.133 1.133 0 110 2.265c-.752 0-1.363.612-1.363 1.363 0 .626-.507 1.133-1.133 1.133z" fill="#2A8CFF"/><defs><linearGradient id="paint0_linear_361_162" x1="-1.506" y1="36.014" x2="123.618" y2="72.815" gradientUnits="userSpaceOnUse"><stop stop-color="#CBECE5"/><stop offset="1" stop-color="#B4CDF4"/></linearGradient></defs></svg>