<svg width="116" height="116" fill="none" xmlns="http://www.w3.org/2000/svg"><path d="M70.25 20.244C65.397 8.311 53.65-.084 39.955.001 22.48.108 8.114 14.203 7.689 31.67a32.36 32.36 0 008.232 22.426c4.219 4.725 6.336 10.948 6.122 17.28a43.653 43.653 0 00-.011 2.541C22.59 96.892 42.215 116.014 65.196 116c23.819-.014 43.123-19.328 43.123-43.15 0-17.462-10.373-32.5-25.292-39.292A24.916 24.916 0 0170.25 20.244z" fill="url(#paint0_linear_361_124)"/><path opacity=".1" d="M103.312 20.01v57.603a3.4 3.4 0 01-3.398 3.398H16.086a3.4 3.4 0 01-3.398-3.398V20.009a3.4 3.4 0 013.398-3.398h83.828a3.4 3.4 0 013.398 3.398z" fill="#243C70"/><path d="M72.35 15.133c-.3 0-.589-.119-.801-.331l-2.496-2.496a1.133 1.133 0 010-1.603l2.496-2.496a1.132 1.132 0 011.602 0l2.496 2.496a1.133 1.133 0 010 1.603l-2.496 2.496c-.213.212-.5.331-.801.331zm-.894-3.629l.894.895.894-.895-.894-.894-.894.894z" fill="#02BF7F"/><path d="M86.557 98.89c-.3 0-.589-.12-.801-.332l-2.496-2.496a1.133 1.133 0 010-1.602l2.496-2.496a1.133 1.133 0 011.602 0l2.496 2.496a1.132 1.132 0 010 1.602l-2.496 2.496c-.213.212-.5.332-.801.332zm-.894-3.63l.894.895.894-.894-.894-.894-.894.894z" fill="#1E80F3"/><path d="M24.17 108.125a1.133 1.133 0 01-1.133-1.133c0-.752-.611-1.364-1.363-1.364a1.132 1.132 0 110-2.265c.752 0 1.364-.612 1.364-1.364a1.133 1.133 0 012.265 0c0 .752.612 1.364 1.364 1.364a1.133 1.133 0 110 2.265c-.752 0-1.364.612-1.364 1.364 0 .625-.507 1.133-1.133 1.133z" fill="#02BF7F"/><path d="M33.989 97.613a1.133 1.133 0 01-1.133-1.133c0-.752-.612-1.364-1.364-1.364a1.133 1.133 0 110-2.265c.752 0 1.364-.612 1.364-1.364a1.133 1.133 0 012.265 0c0 .752.612 1.364 1.364 1.364a1.133 1.133 0 110 2.265c-.752 0-1.364.612-1.364 1.364 0 .626-.507 1.133-1.133 1.133z" fill="#1E80F3"/><path d="M70.847 102.242H45.15l3.35-13.278 1.79-7.091h15.418l1.79 7.091 3.35 13.278z" fill="#78B5EE"/><path d="M67.499 88.964H48.5l1.79-7.091h15.419l1.79 7.091z" fill="#529FFA"/><path d="M70.849 103.373H45.15a1.131 1.131 0 01-1.098-1.41l4.045-16.028a1.133 1.133 0 012.196.554l-3.688 14.618h22.79l-3.722-14.748a1.133 1.133 0 112.197-.554l4.077 16.158a1.131 1.131 0 01-1.098 1.41z" fill="#243C70"/><path d="M103.312 24.767v57.604a3.4 3.4 0 01-3.398 3.398H16.086a3.4 3.4 0 01-3.398-3.398V24.767a3.4 3.4 0 013.398-3.398h83.828a3.4 3.4 0 013.398 3.398z" fill="#fff"/><path d="M99.914 21.369H80.43v64.4h19.484a3.4 3.4 0 003.398-3.398V24.767a3.4 3.4 0 00-3.398-3.398z" fill="#CCEEE3"/><path d="M99.12 42.926l-1.63-5.72a1.135 1.135 0 00-1.089-.825h-5.528c-.505 0-.952.337-1.09.824l-1.629 5.721a22.767 22.767 0 00-6.391 2.646l-5.197-2.893a1.132 1.132 0 00-1.353.188l-3.908 3.91a1.136 1.136 0 00-.19 1.353l2.895 5.197a22.786 22.786 0 00-2.648 6.39l-5.721 1.63a1.131 1.131 0 00-.823 1.09v5.529c0 .505.336.949.823 1.09l5.72 1.628c.384 1.566.93 3.068 1.618 4.489h16.507c-3.904-1.627-6.65-5.477-6.65-9.971 0-5.966 4.836-10.8 10.801-10.8 4.24 0 7.905 2.44 9.674 5.992V44.399a22.783 22.783 0 00-4.191-1.473z" fill="#FF7EB8"/><path d="M99.12 42.926l-1.63-5.72a1.135 1.135 0 00-1.089-.825h-5.528c-.505 0-.952.337-1.09.824l-1.629 5.721a22.767 22.767 0 00-6.391 2.646l-5.197-2.893a1.132 1.132 0 00-1.353.188l-3.908 3.91a1.136 1.136 0 00-.19 1.353l2.895 5.197a22.786 22.786 0 00-2.648 6.39l-5.721 1.63a1.131 1.131 0 00-.823 1.09v5.529c0 .505.336.949.823 1.09l5.72 1.628c.384 1.566.93 3.068 1.618 4.489h16.507c-3.904-1.627-6.65-5.477-6.65-9.971 0-5.966 4.836-10.8 10.801-10.8 4.24 0 7.905 2.44 9.674 5.992V44.399a22.783 22.783 0 00-4.191-1.473z" fill="#02BF7F"/><path d="M103.312 32.283v-7.515a3.398 3.398 0 00-3.398-3.399H16.086a3.399 3.399 0 00-3.398 3.399v7.515h90.624z" fill="#1E80F3"/><path d="M103.312 33.416H12.688a1.133 1.133 0 110-2.266h90.624a1.133 1.133 0 110 2.266z" fill="#243C70"/><path d="M12.688 74.353v8.018a3.399 3.399 0 003.398 3.398h83.828a3.398 3.398 0 003.398-3.398v-8.018H12.688z" fill="#78B5EE"/><path d="M103.187 75.486h-83.26a1.133 1.133 0 010-2.266h83.26a1.133 1.133 0 010 2.266zm-27.983 27.887H40.797a1.133 1.133 0 110-2.265h34.407a1.132 1.132 0 110 2.265zM21.316 27.976a1.133 1.133 0 01-1.132-1.133v-.033a1.133 1.133 0 112.265 0v.033c0 .625-.507 1.133-1.133 1.133zm4.377 0a1.133 1.133 0 01-1.133-1.133v-.033a1.133 1.133 0 012.266 0v.033c0 .625-.507 1.133-1.133 1.133zm4.379 0a1.133 1.133 0 01-1.133-1.133v-.033a1.133 1.133 0 112.266 0v.033c0 .625-.507 1.133-1.133 1.133z" fill="#243C70"/><path d="M99.914 86.902H16.086a4.536 4.536 0 01-4.531-4.531V24.768a4.536 4.536 0 014.53-4.531h83.83a4.536 4.536 0 014.53 4.53v7.516a1.133 1.133 0 11-2.265 0v-7.515a2.269 2.269 0 00-2.266-2.266H16.086a2.268 2.268 0 00-2.266 2.266V82.37a2.268 2.268 0 002.266 2.266h83.828a2.269 2.269 0 002.266-2.266V38.523a1.133 1.133 0 112.265 0V82.37a4.536 4.536 0 01-4.53 4.53z" fill="#243C70"/><path d="M58.84 62.14H21.062a1.135 1.135 0 110-2.27H58.84a1.135 1.135 0 110 2.27z" fill="#B7C5FF"/><path d="M45.246 52.626H21.062a1.135 1.135 0 110-2.27h24.184a1.135 1.135 0 110 2.27z" fill="#FFA8CF"/><path d="M58.84 66.64H21.062a1.135 1.135 0 110-2.269H58.84a1.135 1.135 0 110 2.27z" fill="#B7C5FF"/><path d="M24.041 45.87c-.29 0-.58-.11-.8-.332l-2.727-2.726a1.133 1.133 0 010-1.602l2.726-2.727a1.133 1.133 0 111.602 1.602l-1.926 1.926 1.926 1.926a1.133 1.133 0 01-.8 1.933zm10.596 0a1.133 1.133 0 01-.8-1.934l1.924-1.925-1.925-1.926a1.133 1.133 0 111.602-1.602l2.726 2.727c.443.442.443 1.16 0 1.602l-2.726 2.726a1.129 1.129 0 01-.801.332zm-6.839 0a1.133 1.133 0 01-.985-1.69l3.08-5.453a1.133 1.133 0 011.972 1.114l-3.08 5.453a1.133 1.133 0 01-.987.576z" fill="#4369FD"/><path d="M85.879 66.64h-3.625a.68.68 0 01-.68-.68V52.17a.68.68 0 01.68-.679h3.625a.68.68 0 01.68.68v13.79a.68.68 0 01-.68.68zm-7.412 0h-3.625a.68.68 0 01-.68-.68v-8.53a.68.68 0 01.68-.68h3.625a.68.68 0 01.68.68v8.53a.68.68 0 01-.68.68zm14.823 0h-3.626a.68.68 0 01-.68-.68V48.213a.68.68 0 01.68-.68h3.625a.68.68 0 01.68.68V65.96a.68.68 0 01-.68.68z" fill="#F5CA2A"/><path d="M69.948 40.684a1.266 1.266 0 100-2.533 1.266 1.266 0 000 2.533zm-3.83 0a1.266 1.266 0 100-2.533 1.266 1.266 0 000 2.533zm-3.832 0a1.266 1.266 0 100-2.533 1.266 1.266 0 000 2.533z" fill="#1E80F3"/><defs><linearGradient id="paint0_linear_361_124" x1="15.545" y1="-1.405" x2="93.369" y2="114.775" gradientUnits="userSpaceOnUse"><stop offset=".049" stop-color="#CAECE5"/><stop offset=".999" stop-color="#B3CCF5"/></linearGradient></defs></svg>