<svg width="116" height="116" fill="none" xmlns="http://www.w3.org/2000/svg"><g clip-path="url(#clip0_361_4)"><path d="M86.684 39.426h-.13a25.1 25.1 0 01-18.905-8.607c-7.106-8.148-17.581-13.281-29.254-13.23C17.21 17.684-.27 35.484.003 56.67.276 77.737 17.438 94.73 38.57 94.73a38.41 38.41 0 0016.663-3.776c4.349-2.088 9.53-1.538 13.36 1.395a29.358 29.358 0 0017.864 6.064c16.172.027 29.449-13.145 29.543-29.318.094-16.323-13.015-29.572-29.316-29.668z" fill="url(#paint0_linear_361_4)"/><path d="M103.197 58.919a1.133 1.133 0 01-1.133-1.133c0-.752-.611-1.363-1.363-1.363a1.132 1.132 0 110-2.266c.752 0 1.363-.611 1.363-1.363a1.133 1.133 0 012.266 0c0 .752.612 1.363 1.363 1.363a1.133 1.133 0 110 2.266c-.751 0-1.363.611-1.363 1.363 0 .626-.507 1.133-1.133 1.133z" fill="#1E80F3"/><path d="M28.574 20.978a1.133 1.133 0 01-1.132-1.133c0-.751-.612-1.363-1.364-1.363a1.133 1.133 0 110-2.265c.752 0 1.364-.612 1.364-1.364a1.133 1.133 0 112.265 0c0 .752.612 1.364 1.363 1.364a1.133 1.133 0 110 2.265c-.751 0-1.363.612-1.363 1.363 0 .626-.507 1.133-1.133 1.133z" fill="#2A8CFF"/><path d="M33.564 110.785a1.133 1.133 0 01-1.132-1.133c0-.752-.612-1.363-1.364-1.363a1.133 1.133 0 010-2.266c.752 0 1.364-.612 1.364-1.363a1.133 1.133 0 112.265 0c0 .751.612 1.363 1.364 1.363a1.133 1.133 0 110 2.266c-.752 0-1.364.611-1.364 1.363 0 .625-.507 1.133-1.133 1.133z" fill="#1E80F3"/><path d="M38.553 14.742c-.29 0-.58-.11-.8-.332l-2.497-2.496a1.133 1.133 0 010-1.602l2.496-2.496a1.132 1.132 0 011.602 0l2.496 2.496c.443.442.443 1.16 0 1.602l-2.496 2.496c-.22.221-.51.332-.8.332zm-.894-3.629l.894.894.894-.894-.894-.894-.894.894zm8.378 94.683c-.3 0-.588-.12-.8-.332l-2.497-2.496a1.133 1.133 0 010-1.602l2.496-2.497a1.132 1.132 0 011.602 0l2.497 2.497a1.13 1.13 0 010 1.602l-2.497 2.496c-.212.212-.5.332-.8.332zm-.894-3.63l.894.895.895-.895-.895-.894-.894.894z" fill="#02BF7F"/><g clip-path="url(#clip1_361_4)"><path opacity=".1" d="M43.904 61.243c0 14.053 11.392 25.445 25.446 25.445 14.046-.016 25.428-11.399 25.445-25.445 0-14.053-11.393-25.445-25.445-25.445-14.053 0-25.446 11.392-25.446 25.445z" fill="#243C70"/><path d="M21.286 63.571h24.032V66.4H21.286c-1.954 0-1.954-2.828 0-2.828zm8.481-24.031H69.35v2.827H29.767c-1.704.042-1.936-2.827 0-2.827zm5.655 48.063h33.927v2.827H35.422c-2.37 0-2.37-2.827 0-2.827zm-5.655-11.309h19.79v2.827h-19.79c-1.705 0-1.705-2.827 0-2.827zm.001-25.445h19.79v2.827h-19.79c-1.705-.041-1.821-2.827 0-2.827z" fill="#243C70"/><path d="M69.35 40.953c-13.272 0-24.032 10.76-24.032 24.032s10.76 24.031 24.032 24.031 24.03-10.759 24.03-24.03c.01-13.263-10.734-24.022-23.997-24.032h-.034z" fill="#F5CA2A"/><path d="M79.244 59.33a4.24 4.24 0 00-4.24-4.24h-2.828v-2.828H69.35v2.828h-2.827v-2.828h-2.828v2.828h-2.827v2.827h1.414v14.136h-1.414v2.827h2.827v2.828h2.828V74.88h2.827v2.828h2.827V74.88h2.827a4.24 4.24 0 004.241-4.24v-2.828a4.214 4.214 0 00-1.102-2.827 4.214 4.214 0 001.102-2.827V59.33zm-2.827 0v2.828c0 .78-.633 1.413-1.414 1.413h-9.895v-5.654h9.895c.781 0 1.414.633 1.414 1.414zm0 11.31c0 .78-.633 1.413-1.414 1.413h-9.895V66.4h9.895c.781 0 1.414.633 1.414 1.413v2.828z" fill="#fff"/><path d="M69.1 90.43c-14.053 0-25.446-11.392-25.446-25.445S55.046 39.54 69.1 39.54c14.052 0 25.445 11.392 25.445 25.445-.017 14.046-11.4 25.429-25.445 25.445zm0-48.063c-12.492 0-22.618 10.127-22.618 22.618 0 12.491 10.126 22.618 22.618 22.618 12.49 0 22.617-10.127 22.617-22.618-.014-12.486-10.132-22.603-22.617-22.618z" fill="#243C70"/><path d="M69.368 84.776h-.019c-1.547 0-3.09-.18-4.595-.537l.653-2.75c1.292.306 2.615.46 3.942.46l.019 2.827zm3.094-.243l-.442-2.79a16.889 16.889 0 003.833-1.085l1.086 2.612a19.796 19.796 0 01-4.48 1.263h.003zM61.796 83.28a19.672 19.672 0 01-4.06-2.27l1.661-2.286a16.988 16.988 0 003.478 1.951l-1.079 2.605zm17.905-1.424l-1.481-2.404a17.024 17.024 0 003.128-2.472l1.996 1.999a19.914 19.914 0 01-3.643 2.877zm-24.327-2.859a19.903 19.903 0 01-2.885-3.645l2.403-1.483a17.105 17.105 0 002.48 3.13l-1.998 1.998zm29.99-2.382l-2.287-1.665a16.956 16.956 0 001.95-3.475l2.612 1.082a19.777 19.777 0 01-2.275 4.058zm-34.29-4.023a19.664 19.664 0 01-1.272-4.475l2.792-.446a16.83 16.83 0 001.087 3.833l-2.607 1.088zm37.525-2.99l-2.751-.66c.31-1.296.466-2.625.465-3.958l2.113-.056.714.02a19.986 19.986 0 01-.541 4.654zm-39.04-4.581v-.037c-.001-1.54.177-3.076.531-4.576l2.752.652a16.98 16.98 0 00-.456 3.924l-2.827.037zm36.536-2.761c-.212-1.315-.58-2.6-1.094-3.83l2.608-1.092a19.736 19.736 0 011.272 4.472l-2.786.45zm-32.437-3.733l-2.612-1.078a19.728 19.728 0 012.261-4.06l2.29 1.656a16.945 16.945 0 00-1.939 3.482zm30.127-2.459a17.127 17.127 0 00-2.48-3.12l1.991-2.007a19.945 19.945 0 012.892 3.64l-2.403 1.487zm-26.46-3.049l-2.003-1.996a20.002 20.002 0 013.639-2.888l1.488 2.403a17.122 17.122 0 00-3.124 2.481zm21.948-1.794a16.883 16.883 0 00-3.482-1.932l1.073-2.615c1.44.59 2.804 1.35 4.066 2.261l-1.657 2.286zm-16.46-1.898l-1.097-2.61a19.702 19.702 0 014.475-1.272l.447 2.79a16.935 16.935 0 00-3.825 1.092zm10.446-.856a17.132 17.132 0 00-3.91-.45l-.056-2.828h.056c1.534 0 3.063.176 4.556.526l-.646 2.752z" fill="#fff"/><path d="M8.73 63.571h8.481c2.12.042 1.794 2.828 0 2.828H8.73c-1.87 0-1.87-2.828 0-2.828zM21.163 39.54h4.965c1.747 0 1.747 2.827 0 2.827h-4.965c-1.954.042-2.1-2.827 0-2.827zm4.529 48.063h5.654c1.836 0 1.705 2.827 0 2.827h-5.654c-1.996 0-2.114-2.827 0-2.827zm-2.826-11.309h3.326c1.746 0 1.746 2.827 0 2.827h-3.326c-2.233 0-2.058-2.827 0-2.827zm-9.729 0h5.655c1.982 0 1.788 2.827 0 2.827h-5.655c-1.912 0-1.912-2.827 0-2.827zm9.659-25.425h3.337c1.746 0 1.746 2.786 0 2.827h-3.337c-1.663-.041-1.663-2.827 0-2.827z" fill="#243C70"/><path d="M14.048 39.544l2.789.037c2.495 0 2.495 2.827 0 2.827l-2.79-.037c-1.912 0-1.912-2.827 0-2.827z" fill="#243C70"/><path d="M61.004 29.71c-.29 0-.58-.11-.8-.332l-2.497-2.496a1.133 1.133 0 010-1.602l2.496-2.497a1.132 1.132 0 011.602 0l2.497 2.497c.442.442.442 1.16 0 1.602l-2.497 2.496c-.22.221-.51.332-.8.332zm-.894-3.63l.894.895.894-.894-.894-.895-.894.895z" fill="#02BF7F"/></g></g><defs><clipPath id="clip0_361_4"><path fill="#fff" d="M0 0h116v116H0z"/></clipPath><clipPath id="clip1_361_4"><path fill="#fff" transform="translate(4.988 16.215)" d="M0 0h89.806v84.817H0z"/></clipPath><linearGradient id="paint0_linear_361_4" x1="6.691" y1="28.717" x2="108.418" y2="100.426" gradientUnits="userSpaceOnUse"><stop stop-color="#CCEEE3"/><stop offset="1" stop-color="#B1C9F6"/></linearGradient></defs></svg>