<svg width="93" height="93" fill="none" xmlns="http://www.w3.org/2000/svg"><path d="M93 34.445C93 20.421 72.181 9.052 46.5 9.052S0 20.422 0 34.445c0 2.267.545 4.465 1.566 6.556 1.817 3.722 2.27 7.96 1.369 12.004a25.44 25.44 0 00-.606 5.139c-.224 14.134 11.255 25.804 25.39 25.804 10.616 0 19.709-6.515 23.502-15.764 2.083-5.08 6.46-8.886 11.835-10.004C80.562 54.537 93 45.285 93 34.445z" fill="url(#paint0_linear_224_0)"/><path d="M13.17 78.392a.905.905 0 01-.642-.266l-2.001-2.001a.908.908 0 010-1.285l2.001-2.001a.908.908 0 011.284 0l2.002 2.001a.908.908 0 010 1.285l-2.002 2a.905.905 0 01-.642.267zm-.716-2.91l.716.718.717-.718-.717-.716-.716.716zM78.91 18.819a.905.905 0 01-.642-.266l-2.002-2.001a.908.908 0 010-1.285l2.002-2.001a.908.908 0 011.284 0l2.001 2.001a.908.908 0 010 1.285l-2.001 2a.905.905 0 01-.642.267zm-.717-2.91l.717.717.716-.717-.716-.716-.717.716zM4.91 75.819A.908.908 0 014 74.91c0-.602-.49-1.093-1.093-1.093a.908.908 0 110-1.816c.603 0 1.093-.49 1.093-1.093a.908.908 0 111.817 0c0 .603.49 1.093 1.093 1.093a.908.908 0 110 1.816c-.603 0-1.093.49-1.093 1.094a.908.908 0 01-.908.908zm57-70A.908.908 0 0161 4.91c0-.602-.49-1.092-1.093-1.092a.908.908 0 110-1.817c.603 0 1.093-.49 1.093-1.093a.908.908 0 111.817 0c0 .603.49 1.093 1.093 1.093a.908.908 0 010 1.817c-.603 0-1.093.49-1.093 1.092a.908.908 0 01-.908.909zm-38 51a.908.908 0 01-.91-.909c0-.602-.49-1.092-1.093-1.092a.908.908 0 110-1.817c.603 0 1.093-.49 1.093-1.093a.908.908 0 111.817 0c0 .603.49 1.093 1.093 1.093a.908.908 0 010 1.817c-.603 0-1.093.49-1.093 1.093a.908.908 0 01-.909.908z" fill="#02BF7F"/><path opacity=".1" d="M73.989 49.487V22.934a4.927 4.927 0 00-4.921-4.921h-7.12v-.597A3.42 3.42 0 0058.53 14a3.42 3.42 0 00-3.416 3.416v.597H38.872v-.597A3.42 3.42 0 0035.455 14a3.42 3.42 0 00-3.416 3.416v.597H24.92A4.927 4.927 0 0020 22.934V37.17a.908.908 0 101.817 0v-3.294h50.355v13.858a15.884 15.884 0 00-10.129-3.636c-2.964 0-5.74.813-8.121 2.227v-.315a1.914 1.914 0 00-1.912-1.912h-2.006a1.914 1.914 0 00-1.912 1.912v2.006c0 .964.717 1.761 1.646 1.891a15.883 15.883 0 00-3.652 10.148l.001.095H24.921a3.108 3.108 0 01-3.104-3.105V40.803a.908.908 0 10-1.817 0v20.254a4.927 4.927 0 004.921 4.921h2.198a.908.908 0 100-1.816H24.92a3.108 3.108 0 01-3.104-3.105v-.198a4.898 4.898 0 003.104 1.107H46.2c.09.749.232 1.482.422 2.196h-15.87a.908.908 0 000 1.817h16.474c2.357 5.873 8.11 10.032 14.816 10.032 8.8 0 15.958-7.158 15.958-15.957 0-4.05-1.517-7.75-4.011-10.567zM21.817 32.058v-2.196h50.355v2.196H21.817zm28.092 13.95c0-.052.042-.094.095-.094h2.006c.052 0 .095.042.095.095v1.57c-.215.172-.425.349-.63.531h-1.471a.095.095 0 01-.095-.095V46.01z" fill="#243C70"/><path d="M45.851 66.07h-22.93a4.013 4.013 0 01-4.013-4.013v-4.013h30.798L45.85 66.07z" fill="#D3DCFB"/><path d="M71.08 33.967v28.09H22.921a4.013 4.013 0 01-4.013-4.013V33.967l28.093-10.033 24.08 10.033z" fill="#fff"/><path d="M25.967 41.992h-2.075a.969.969 0 01-.97-.968v-2.076a.97.97 0 01.97-.968h2.075c.535 0 .969.433.969.968v2.075a.969.969 0 01-.97.97zm8.025 0h-2.075a.969.969 0 01-.969-.968v-2.076c0-.535.434-.968.97-.968h2.074a.97.97 0 01.97.968v2.075a.969.969 0 01-.97.97zm8.026 0h-2.075a.969.969 0 01-.97-.968v-2.076c0-.535.434-.968.97-.968h2.075c.535 0 .968.433.968.968v2.075a.969.969 0 01-.968.97zm8.026 0h-2.075a.969.969 0 01-.969-.968v-2.076c0-.535.434-.968.969-.968h2.075c.535 0 .969.433.969.968v2.075a.969.969 0 01-.969.97zm8.023 0h-2.075a.969.969 0 01-.969-.968v-2.076c0-.535.434-.968.97-.968h2.074a.97.97 0 01.97.968v2.075a.969.969 0 01-.97.97zm8.027 0h-2.075a.969.969 0 01-.97-.968v-2.076a.97.97 0 01.97-.968h2.075c.535 0 .969.433.969.968v2.075a.969.969 0 01-.97.97zm-40.128 8.026H23.89a.969.969 0 01-.97-.969v-2.075a.97.97 0 01.97-.969h2.075a.97.97 0 01.969.97v2.074a.969.969 0 01-.97.97zm8.026 0h-2.075a.97.97 0 01-.969-.969v-2.075a.97.97 0 01.97-.969h2.074a.97.97 0 01.97.97v2.074a.969.969 0 01-.97.97zm8.026 0h-2.075a.97.97 0 01-.97-.969v-2.075a.97.97 0 01.97-.969h2.075c.535 0 .968.434.968.97v2.074a.969.969 0 01-.968.97zm8.995 0v-3.01c0-.553-.45-1.003-1.003-1.003h-2.007c-.554 0-1.003.45-1.003 1.004v2.006c0 .554.45 1.003 1.003 1.003h3.01zm-25.047 8.026H23.89a.969.969 0 01-.97-.969V55a.97.97 0 01.97-.969h2.075a.97.97 0 01.969.97v2.074a.969.969 0 01-.97.97zm8.026 0h-2.075a.97.97 0 01-.969-.969V55a.97.97 0 01.97-.969h2.074a.97.97 0 01.97.97v2.074a.97.97 0 01-.97.97zm8.026 0h-2.075a.97.97 0 01-.97-.969V55a.97.97 0 01.97-.969h2.075c.535 0 .968.434.968.97v2.074a.969.969 0 01-.968.97z" fill="#3C58A0"/><path d="M66.095 37.98H64.02a.966.966 0 00-.355.067c.36.142.614.492.614.901v2.075c0 .41-.255.76-.614.901.11.044.23.068.355.068h2.075a.969.969 0 00.97-.969v-2.075a.969.969 0 00-.97-.969zm-8.026 0h-2.075a.966.966 0 00-.355.067.97.97 0 01.613.901v2.075c0 .41-.254.76-.613.901.11.044.23.068.355.068h2.075a.969.969 0 00.969-.969v-2.075a.969.969 0 00-.969-.969zm-8.025 0h-2.075a.966.966 0 00-.356.067c.36.142.614.492.614.901v2.075c0 .41-.255.76-.614.901.11.044.23.068.355.068h2.076a.969.969 0 00.969-.969v-2.075a.969.969 0 00-.97-.969zm-8.026 0h-2.075a.966.966 0 00-.355.067.97.97 0 01.614.901v2.075c0 .41-.255.76-.614.901.11.044.23.068.355.068h2.075a.969.969 0 00.97-.969v-2.075a.969.969 0 00-.97-.969zm-8.025 0h-2.075a.966.966 0 00-.355.067.97.97 0 01.613.901v2.075c0 .41-.254.76-.614.901.11.044.23.068.356.068h2.075a.969.969 0 00.969-.969v-2.075a.969.969 0 00-.97-.969zm-8.027 0h-2.075a.966.966 0 00-.355.067c.36.142.614.492.614.901v2.075c0 .41-.255.76-.614.901.11.044.23.068.355.068h2.075a.97.97 0 00.97-.969v-2.075a.97.97 0 00-.97-.969zm0 8.025h-2.075a.964.964 0 00-.355.069c.36.141.614.49.614.9v2.076c0 .41-.255.759-.614.9.11.044.23.068.355.068h2.075a.969.969 0 00.97-.968v-2.076a.969.969 0 00-.97-.969zm0 8.026h-2.075a.966.966 0 00-.355.068c.36.142.614.492.614.901v2.075c0 .41-.255.76-.614.901.11.044.23.068.355.068h2.075a.97.97 0 00.97-.969V55a.969.969 0 00-.97-.969zm8.027-8.026h-2.075a.964.964 0 00-.355.069c.359.141.613.49.613.9v2.076c0 .41-.254.759-.614.9.11.044.23.068.356.068h2.075a.969.969 0 00.969-.968v-2.076a.969.969 0 00-.97-.969zm0 8.026h-2.075a.966.966 0 00-.355.068.97.97 0 01.613.901v2.075c0 .41-.254.76-.614.901.11.044.23.068.356.068h2.075a.969.969 0 00.969-.969V55a.969.969 0 00-.97-.969zm8.025-8.026h-2.075a.964.964 0 00-.355.069c.359.141.614.49.614.9v2.076c0 .41-.255.759-.614.9.11.044.23.068.355.068h2.075a.969.969 0 00.97-.968v-2.076a.969.969 0 00-.97-.969zm8.995 4.013v-3.044a.969.969 0 00-.97-.969h-2.075a.964.964 0 00-.355.069c.36.141.614.49.614.9v2.076c0 .41-.255.759-.614.9.11.044.23.068.355.068h3.044zm-8.995 4.013h-2.075a.966.966 0 00-.355.068.97.97 0 01.614.901v2.075c0 .41-.255.76-.614.901.11.044.23.068.355.068h2.075a.969.969 0 00.97-.969V55a.969.969 0 00-.97-.969z" fill="#78B5EE"/><path d="M68.293 32.805v29.252h2.788V33.966l-2.788-1.161z" fill="#D3DCFB"/><path d="M71.08 33.966V23.934a4.013 4.013 0 00-4.012-4.013H22.92a4.013 4.013 0 00-4.013 4.013v10.032H71.08z" fill="#1E80F3"/><path d="M35.963 23.433a2.508 2.508 0 11-5.016 0v-5.017a2.508 2.508 0 115.016 0v5.017zm23.077 0a2.508 2.508 0 11-5.017 0v-5.017a2.508 2.508 0 115.016 0v5.017z" fill="#fff"/><path d="M56.53 15.908c-.515 0-.993.156-1.391.422a2.505 2.505 0 011.116 2.086v5.017c0 .87-.443 1.636-1.116 2.086a2.508 2.508 0 003.9-2.086v-5.017a2.508 2.508 0 00-2.509-2.508zm-23.075 0a2.5 2.5 0 00-1.392.422 2.505 2.505 0 011.117 2.086v5.017c0 .87-.444 1.636-1.117 2.086a2.508 2.508 0 003.9-2.086v-5.017a2.508 2.508 0 00-2.508-2.508z" fill="#D3DCFB"/><path d="M67.068 19.92H64.28a4.013 4.013 0 014.013 4.014v10.032h2.787V23.934a4.013 4.013 0 00-4.013-4.013z" fill="#1E80F3"/><path d="M60.043 76.103c8.31 0 15.048-6.738 15.048-15.05 0-8.31-6.737-15.048-15.048-15.048s-15.049 6.738-15.049 15.049 6.738 15.049 15.049 15.049z" fill="#F5CA2A"/><path d="M60.044 72.09c6.094 0 11.035-4.942 11.035-11.036 0-6.095-4.94-11.036-11.035-11.036s-11.036 4.94-11.036 11.036c0 6.094 4.94 11.035 11.035 11.035z" fill="#fff"/><path d="M23.891 42.9h2.075a1.88 1.88 0 001.877-1.876v-2.075a1.88 1.88 0 00-1.877-1.878h-2.075a1.88 1.88 0 00-1.877 1.878v2.075A1.88 1.88 0 0023.89 42.9zm-.06-3.951a.06.06 0 01.06-.061h2.075a.06.06 0 01.06.06v2.075a.06.06 0 01-.06.061h-2.075a.06.06 0 01-.06-.06v-2.075zm8.086 3.951h2.075a1.88 1.88 0 001.878-1.876v-2.075a1.88 1.88 0 00-1.878-1.878h-2.075a1.88 1.88 0 00-1.877 1.878v2.075a1.88 1.88 0 001.877 1.877zm-.06-3.951a.06.06 0 01.06-.061h2.075a.06.06 0 01.06.06v2.075a.06.06 0 01-.06.061h-2.075a.06.06 0 01-.06-.06v-2.075zm8.087 3.951h2.075a1.88 1.88 0 001.877-1.876v-2.075a1.88 1.88 0 00-1.877-1.878h-2.075a1.88 1.88 0 00-1.878 1.878v2.075a1.88 1.88 0 001.878 1.877zm-.06-3.951a.06.06 0 01.06-.061h2.075a.06.06 0 01.06.06v2.075a.06.06 0 01-.06.061h-2.075a.06.06 0 01-.06-.06v-2.075zm10.16 3.951a1.88 1.88 0 001.877-1.876v-2.075a1.88 1.88 0 00-1.877-1.878H47.97a1.88 1.88 0 00-1.877 1.878v2.075a1.88 1.88 0 001.877 1.877h2.075zm-2.136-1.876v-2.075a.06.06 0 01.061-.061h2.075a.06.06 0 01.06.06v2.076a.06.06 0 01-.06.06H47.97a.06.06 0 01-.06-.06zM58.07 42.9a1.88 1.88 0 001.877-1.876v-2.075a1.88 1.88 0 00-1.878-1.878h-2.075a1.88 1.88 0 00-1.877 1.878v2.075a1.88 1.88 0 001.878 1.877h2.075zm-2.136-1.876v-2.075a.06.06 0 01.06-.061h2.075a.06.06 0 01.061.06v2.076a.06.06 0 01-.06.06h-2.075a.06.06 0 01-.061-.06zM66.095 42.9a1.88 1.88 0 001.877-1.876v-2.075a1.88 1.88 0 00-1.877-1.878H64.02a1.88 1.88 0 00-1.877 1.878v2.075A1.88 1.88 0 0064.02 42.9h2.075zm-2.136-1.876v-2.075a.06.06 0 01.06-.061h2.076a.06.06 0 01.06.06v2.076a.06.06 0 01-.06.06H64.02a.06.06 0 01-.06-.06zM22.014 49.05a1.88 1.88 0 001.877 1.877h2.075a1.88 1.88 0 001.877-1.877v-2.075a1.88 1.88 0 00-1.877-1.878h-2.075a1.88 1.88 0 00-1.877 1.877v2.076zm1.816-2.075a.06.06 0 01.061-.061h2.075a.06.06 0 01.06.06v2.076a.06.06 0 01-.06.06h-2.075a.06.06 0 01-.06-.06v-2.075zm6.21 2.075a1.88 1.88 0 001.877 1.877h2.075a1.88 1.88 0 001.878-1.877v-2.075a1.88 1.88 0 00-1.878-1.878h-2.075a1.88 1.88 0 00-1.877 1.877v2.076zm1.817-2.075a.06.06 0 01.06-.061h2.075a.06.06 0 01.06.06v2.076a.06.06 0 01-.06.06h-2.075a.06.06 0 01-.06-.06v-2.075zm6.209 2.075a1.88 1.88 0 001.878 1.877h2.075a1.88 1.88 0 001.877-1.877v-2.075a1.88 1.88 0 00-1.877-1.878h-2.075a1.88 1.88 0 00-1.878 1.877v2.076zm1.817-2.075a.06.06 0 01.06-.061h2.076a.06.06 0 01.06.06v2.076a.06.06 0 01-.06.06h-2.075a.06.06 0 01-.06-.06v-2.075zM22.014 57.076a1.88 1.88 0 001.877 1.877h2.075a1.88 1.88 0 001.877-1.877V55a1.88 1.88 0 00-1.877-1.878h-2.075A1.88 1.88 0 0022.014 55v2.075zM23.83 55a.06.06 0 01.061-.061h2.075a.06.06 0 01.06.06v2.076a.06.06 0 01-.06.06h-2.075a.06.06 0 01-.06-.06V55zm6.21 2.076a1.88 1.88 0 001.877 1.877h2.075a1.88 1.88 0 001.878-1.877V55a1.88 1.88 0 00-1.878-1.878h-2.075A1.88 1.88 0 0030.04 55v2.075zM31.857 55a.06.06 0 01.06-.061h2.075a.06.06 0 01.06.06v2.076a.06.06 0 01-.06.06h-2.075a.06.06 0 01-.06-.06V55zm6.209 2.076a1.88 1.88 0 001.878 1.877h2.075a1.88 1.88 0 001.877-1.877V55a1.88 1.88 0 00-1.877-1.878h-2.075A1.88 1.88 0 0038.066 55v2.075zM39.883 55a.06.06 0 01.06-.061h2.076a.06.06 0 01.06.06v2.076a.06.06 0 01-.06.06h-2.075a.06.06 0 01-.06-.06V55z" fill="#243C70"/><path d="M71.989 50.487V23.934a4.927 4.927 0 00-4.921-4.921h-7.12v-.597A3.42 3.42 0 0056.53 15a3.42 3.42 0 00-3.416 3.416v.597H36.872v-.597A3.42 3.42 0 0033.455 15a3.42 3.42 0 00-3.416 3.416v.597H22.92A4.927 4.927 0 0018 23.934V38.17a.908.908 0 101.817 0v-3.294h50.355v13.858a15.884 15.884 0 00-10.129-3.636c-2.964 0-5.74.813-8.121 2.227v-.315a1.914 1.914 0 00-1.912-1.912h-2.006a1.914 1.914 0 00-1.912 1.912v2.006c0 .964.717 1.761 1.646 1.891a15.883 15.883 0 00-3.652 10.148l.001.095H22.921a3.108 3.108 0 01-3.104-3.105V41.803a.908.908 0 10-1.817 0v20.254a4.927 4.927 0 004.921 4.921h2.198a.908.908 0 100-1.816H22.92a3.108 3.108 0 01-3.104-3.105v-.198a4.898 4.898 0 003.104 1.107H44.2c.09.749.232 1.482.422 2.196h-15.87a.908.908 0 000 1.817h16.474c2.357 5.873 8.11 10.032 14.816 10.032 8.8 0 15.958-7.158 15.958-15.957 0-4.05-1.517-7.75-4.011-10.567zm-17.058-32.07c0-.883.718-1.6 1.6-1.6.882 0 1.6.717 1.6 1.6v5.016c0 .882-.718 1.6-1.6 1.6-.882 0-1.6-.718-1.6-1.6v-5.017zm-23.075 0a1.6 1.6 0 013.2 0v5.016c0 .882-.718 1.6-1.6 1.6-.883 0-1.6-.718-1.6-1.6v-5.017zM22.92 20.83h7.118v2.196H28.94a.908.908 0 100 1.817h1.404a3.42 3.42 0 003.11 2.006 3.42 3.42 0 003.111-2.006h1.404a.908.908 0 100-1.817h-1.098V20.83h16.243v2.196h-1.099a.908.908 0 100 1.817h1.404a3.42 3.42 0 003.111 2.006 3.42 3.42 0 003.11-2.006h1.405a.908.908 0 100-1.817h-1.099V20.83h7.12a3.108 3.108 0 013.105 3.104v5.111H19.817v-5.11a3.108 3.108 0 013.104-3.105zm-3.104 12.228v-2.196h50.355v2.196H19.817zm28.092 13.95c0-.052.042-.094.095-.094h2.006c.052 0 .095.042.095.095v1.57c-.215.172-.425.349-.63.531h-1.471a.095.095 0 01-.095-.095V47.01zm12.134 28.186c-7.797 0-14.14-6.343-14.14-14.14 0-7.797 6.343-14.14 14.14-14.14 7.797 0 14.14 6.343 14.14 14.14 0 7.797-6.343 14.14-14.14 14.14z" fill="#243C70"/><path d="M63.129 55.477h0c.89.668 1.371 1.592 1.371 2.52a.5.5 0 01-1 0c0-.602-.3-1.126-.729-1.521-.429-.396-1.01-.688-1.652-.845l-.619-.15V60.5l.42.068c.836.134 1.598.447 2.209.905h0c.89.668 1.371 1.592 1.371 2.52 0 .927-.48 1.85-1.371 2.519h0c-.611.458-1.373.77-2.208.904l-.421.068V69a.5.5 0 01-1 0v-1.516l-.42-.067c-.836-.134-1.598-.447-2.209-.905-.89-.668-1.371-1.592-1.371-2.52a.5.5 0 011 0c0 .601.3 1.126.729 1.521.429.396 1.01.688 1.652.845l.619.15v-5.021l-.42-.067c-.836-.134-1.598-.447-2.209-.905-.89-.668-1.371-1.592-1.371-2.52 0-.927.48-1.85 1.371-2.519h0c.611-.458 1.373-.77 2.208-.905l.421-.067v-1.506a.5.5 0 011 0v1.506l.42.067c.836.134 1.598.447 2.209.905zm-3.629.64v-.637l-.619.151c-.643.157-1.223.45-1.652.845-.429.395-.729.92-.729 1.52 0 .602.3 1.126.729 1.522.429.395 1.01.687 1.652.844l.619.151v-4.397zm1 9.756v.637l.619-.151c.643-.157 1.223-.45 1.652-.845.429-.395.729-.92.729-1.52 0-.602-.3-1.126-.729-1.522-.429-.395-1.01-.687-1.652-.844l-.619-.151v4.396z" stroke="#243C70"/><defs><linearGradient id="paint0_linear_224_0" x1="63" y1="89.5" x2="12.433" y2="-51.041" gradientUnits="userSpaceOnUse"><stop offset=".002" stop-color="#B4CDF4"/><stop offset=".592" stop-color="#CAEBE5"/></linearGradient></defs></svg>