<svg width="116" height="116" fill="none" xmlns="http://www.w3.org/2000/svg"><path d="M116 42.964c0-17.492-25.968-31.673-58-31.673S0 25.471 0 42.964c0 2.828.68 5.569 1.953 8.177 2.267 4.642 2.832 9.93 1.708 14.972a31.73 31.73 0 00-.756 6.41c-.28 17.63 14.038 32.186 31.67 32.186 13.24 0 24.582-8.126 29.314-19.662 2.598-6.336 8.057-11.083 14.761-12.478C100.486 68.023 116 56.483 116 42.963z" fill="url(#paint0_linear_361_71)"/><path opacity=".1" d="M83.383 21.67a3.39 3.39 0 00-3.39 3.39c0 .523.122 1.015.332 1.457l-17.95 17.95a1.132 1.132 0 101.602 1.602l17.95-17.95c.442.21.934.332 1.456.332a3.39 3.39 0 000-6.78z" fill="#242F4D"/><path opacity=".1" d="M88.555 60.963a13.57 13.57 0 00-4.115.636V38.776h12.21c.625 0 1.133-.507 1.133-1.133v-5.086c0-3.714-2.98-6.73-6.68-6.794.045 0 .089-.003.133-.003H63.53v-8.527a2.266 2.266 0 00-2.266-2.265H16.131a2.266 2.266 0 00-2.266 2.265v32.849a2.266 2.266 0 002.266 2.265h26.653v23.15H30.306c-.625 0-1.132.507-1.132 1.132v10.088a6.797 6.797 0 006.797 6.797h41.655-.013.03a6.798 6.798 0 006.754-6.042c1.31.421 2.707.65 4.158.65 7.5 0 13.58-6.08 13.58-13.58s-6.08-13.58-13.58-13.58z" fill="#242F4D"/><path d="M97.782 41.217v-5.086a6.797 6.797 0 00-6.797-6.797H79.326V42.35H96.65c.626 0 1.133-.507 1.133-1.133z" fill="#1E80F3"/><path d="M97.784 36.132v3.364a6.798 6.798 0 00-6.797-6.797H79.328v-3.364h11.659a6.796 6.796 0 016.797 6.797z" fill="#1E80F3"/><path d="M91.236 29.334a6.796 6.796 0 00-6.797 6.797v54.16a6.798 6.798 0 01-6.797 6.796H42.783V36.131a6.796 6.796 0 016.797-6.797h41.656z" fill="#fff"/><path d="M73.076 46.204h-9.558a1.133 1.133 0 01-1.133-1.133v-9.558c0-.626.507-1.133 1.133-1.133h9.558c.626 0 1.133.507 1.133 1.133v9.558c0 .626-.507 1.133-1.133 1.133zM69.92 88.43a8.273 8.273 0 100-16.545 8.273 8.273 0 000 16.545z" fill="#EBEBFF"/><path d="M63.527 29.334v28.175a2.264 2.264 0 01-2.265 2.266H42.783V36.13a6.796 6.796 0 016.797-6.797h13.947z" fill="#EBEBFF"/><path d="M70.83 90.29V80.204c0-.625-.508-1.133-1.133-1.133h-39.39c-.626 0-1.133.508-1.133 1.133v10.088a6.797 6.797 0 006.797 6.797h41.655a6.796 6.796 0 01-6.796-6.797z" fill="#1E80F3"/><path d="M61.263 55.921H16.131a2.266 2.266 0 01-2.266-2.265V20.807a2.266 2.266 0 012.266-2.265h45.132a2.266 2.266 0 012.266 2.265v32.849a2.266 2.266 0 01-2.266 2.265z" fill="#CCEEE3"/><path d="M68.787 69.547H49.643a1.133 1.133 0 110-2.266h19.144a1.133 1.133 0 110 2.266z" fill="#B3B3FF"/><path d="M53.834 63.414h-4.191a1.133 1.133 0 110-2.266h4.191a1.133 1.133 0 110 2.266z" fill="#F5CA2A"/><path d="M76.943 74.107h-27.3a1.133 1.133 0 110-2.266h27.3a1.133 1.133 0 110 2.266z" fill="#B3B3FF"/><path d="M73.944 46.819a3.768 3.768 0 01-3.764-3.764 3.768 3.768 0 013.764-3.764 3.768 3.768 0 013.763 3.764 3.768 3.768 0 01-3.763 3.764zm0-5.263a1.5 1.5 0 00-1.499 1.499 1.5 1.5 0 001.499 1.498 1.5 1.5 0 001.498-1.498 1.5 1.5 0 00-1.498-1.499z" fill="#02BF7F"/><path d="M76.575 49.45a1.133 1.133 0 01-1.133-1.133 1.5 1.5 0 00-1.498-1.498 1.5 1.5 0 00-1.499 1.498 1.133 1.133 0 11-2.265 0 3.768 3.768 0 013.764-3.764 3.768 3.768 0 013.763 3.764c0 .625-.507 1.133-1.132 1.133z" fill="#02BF7F"/><path d="M76.575 54.555a1.267 1.267 0 100-2.533 1.267 1.267 0 000 2.533z" fill="#F5CA2A"/><path d="M19.892 25.608a1.267 1.267 0 100-2.533 1.267 1.267 0 000 2.533z" fill="#fff"/><path d="M76.575 58.386a1.267 1.267 0 100-2.533 1.267 1.267 0 000 2.533zm1.267 2.565a1.267 1.267 0 11-2.533 0 1.267 1.267 0 012.533 0zm10.713 30.746c7.5 0 13.58-6.08 13.58-13.58s-6.08-13.58-13.58-13.58-13.58 6.08-13.58 13.58 6.08 13.58 13.58 13.58z" fill="#F5CA2A"/><path d="M88.554 87.72c5.303 0 9.602-4.3 9.602-9.603a9.603 9.603 0 10-19.205 0c0 5.303 4.3 9.602 9.603 9.602z" fill="#fff"/><path d="M89.869 83.32h-3.625a1.133 1.133 0 110-2.265h3.625a.903.903 0 000-1.805H87.24a3.171 3.171 0 01-3.168-3.168 3.171 3.171 0 013.168-3.168h3.624a1.133 1.133 0 110 2.266H87.24a.903.903 0 000 1.804h2.629a3.171 3.171 0 013.167 3.168 3.171 3.171 0 01-3.167 3.168z" fill="#243C70"/><path d="M88.555 84.835a1.133 1.133 0 01-1.133-1.133V72.531a1.133 1.133 0 112.266 0v11.171c0 .626-.508 1.133-1.133 1.133z" fill="#243C70"/><path d="M31.58 41.51a3.39 3.39 0 100-6.781 3.39 3.39 0 000 6.78z" fill="#1E80F3"/><path d="M40.168 49.87a3.39 3.39 0 100-6.781 3.39 3.39 0 000 6.78z" fill="#02BF7F"/><path d="M54.869 35.423a3.39 3.39 0 100-6.78 3.39 3.39 0 000 6.78z" fill="#1E80F3"/><path d="M63.244 43.948a3.39 3.39 0 100-6.781 3.39 3.39 0 000 6.78z" fill="#02BF7F"/><path d="M83.382 23.693a3.39 3.39 0 100-6.78 3.39 3.39 0 000 6.78z" fill="#1E80F3"/><path d="M88.555 63.404c-8.113 0-14.713 6.6-14.713 14.713 0 6.187 3.84 11.49 9.262 13.661-.662 2.421-2.9 4.177-5.462 4.177h-.016a5.67 5.67 0 01-5.664-5.664V80.204a2.268 2.268 0 00-2.265-2.266H43.916V57.054h17.347a3.402 3.402 0 003.399-3.398V44.85a4.529 4.529 0 003.106-4.292 4.49 4.49 0 00-.674-2.363l7.727-7.728h10.87a7.906 7.906 0 00-2.385 5.665v21.626a1.133 1.133 0 102.266 0V43.483H96.65a2.268 2.268 0 002.265-2.265V36.13c0-4.26-3.377-7.745-7.595-7.92-.029-.003-.056-.01-.084-.01h-14.15l4.006-4.005c.673.398 1.454.63 2.291.63a4.528 4.528 0 004.523-4.523 4.528 4.528 0 00-4.523-4.523 4.528 4.528 0 00-4.523 4.523c0 .837.233 1.618.63 2.291l-5.608 5.608h-9.22v-7.394a3.402 3.402 0 00-3.399-3.399H16.131a3.402 3.402 0 00-3.399 3.399v32.848a3.402 3.402 0 003.399 3.398H35.08a1.133 1.133 0 000-2.265H16.13a1.134 1.134 0 01-1.132-1.133V20.808c0-.625.508-1.133 1.133-1.133h45.132c.625 0 1.133.508 1.133 1.133v15.31c-.523.1-1.013.291-1.456.555l-2.242-2.242a4.49 4.49 0 00.694-2.398 4.528 4.528 0 00-4.522-4.523 4.528 4.528 0 00-4.523 4.523c0 .818.221 1.584.603 2.247l-8.376 8.376a4.491 4.491 0 00-4.839.016l-2.262-2.262c.398-.673.63-1.454.63-2.29a4.528 4.528 0 00-4.523-4.523 4.528 4.528 0 00-4.523 4.522c0 .837.233 1.618.63 2.291l-7.426 7.427a1.132 1.132 0 101.602 1.601l7.426-7.426a4.488 4.488 0 004.582 0l2.318 2.318a4.494 4.494 0 00-.544 2.15 4.528 4.528 0 004.523 4.522 4.528 4.528 0 004.523-4.523c0-.788-.204-1.53-.56-2.176l8.404-8.404a4.489 4.489 0 004.52.092l2.289 2.289a4.488 4.488 0 00-.622 2.277 4.529 4.529 0 003.674 4.44v8.658c0 .625-.508 1.133-1.133 1.133h-18.48a1.13 1.13 0 00-1.126 1.065h-.006v22.084H30.307a2.268 2.268 0 00-2.266 2.266v10.088c0 4.372 3.557 7.93 7.93 7.93h41.671c3.557 0 6.674-2.418 7.628-5.766 1.057.242 2.156.374 3.285.374 8.113 0 14.713-6.6 14.713-14.712 0-8.113-6.6-14.713-14.713-14.713zM91.11 30.47a5.67 5.67 0 015.539 5.66v5.087H85.572V36.13a5.669 5.669 0 015.539-5.66zm-7.728-12.425a2.26 2.26 0 012.258 2.257 2.26 2.26 0 01-2.258 2.257 2.26 2.26 0 01-2.257-2.257 2.26 2.26 0 012.257-2.257zM71.617 30.467l-6.154 6.154a4.487 4.487 0 00-.801-.356v-5.798h6.955zm-40.037 9.91a2.26 2.26 0 01-2.257-2.258 2.26 2.26 0 012.257-2.257 2.26 2.26 0 012.257 2.257 2.26 2.26 0 01-2.257 2.258zm8.588 8.36a2.26 2.26 0 01-2.258-2.258 2.26 2.26 0 012.258-2.257 2.26 2.26 0 012.257 2.257 2.26 2.26 0 01-2.257 2.258zm12.444-16.704a2.26 2.26 0 012.257-2.257 2.26 2.26 0 012.258 2.257 2.26 2.26 0 01-2.258 2.258 2.26 2.26 0 01-2.257-2.258zm8.375 8.525a2.26 2.26 0 012.258-2.258 2.26 2.26 0 012.257 2.258 2.26 2.26 0 01-2.257 2.257 2.26 2.26 0 01-2.258-2.257zM35.97 95.955a5.67 5.67 0 01-5.664-5.664V80.204h39.39V90.29c0 2.217.915 4.224 2.386 5.664H35.97zm52.585-5.391c-6.864 0-12.447-5.584-12.447-12.447 0-6.863 5.584-12.447 12.447-12.447 6.863 0 12.447 5.583 12.447 12.447 0 6.863-5.584 12.447-12.447 12.447z" fill="#242F4D"/><path d="M44.46 30.148H25.024a1.133 1.133 0 110-2.266H44.46a1.133 1.133 0 010 2.266zm-16.122-4.583h-2.832a1.133 1.133 0 110-2.266h2.832a1.133 1.133 0 110 2.266zm11.492 0h-7.59a1.133 1.133 0 110-2.266h7.59a1.133 1.133 0 010 2.266z" fill="#243C70"/><path d="M16.428 97.78c-.29 0-.58-.111-.8-.332L13.13 94.95a1.133 1.133 0 010-1.602l2.496-2.496a1.133 1.133 0 011.602 0l2.496 2.496c.443.443.443 1.16 0 1.602l-2.496 2.497c-.22.22-.51.331-.8.331zm-.894-3.63l.894.895.894-.895-.894-.894-.894.894zm82.89-70.677c-.29 0-.58-.11-.8-.331l-2.497-2.497a1.133 1.133 0 010-1.602l2.496-2.496a1.132 1.132 0 011.602 0l2.496 2.496c.443.442.443 1.16 0 1.602l-2.496 2.496c-.22.222-.51.332-.8.332zm-.894-3.629l.894.894.894-.894-.894-.894-.894.894zM6.123 94.57a1.133 1.133 0 01-1.133-1.133c0-.752-.611-1.364-1.363-1.364a1.133 1.133 0 110-2.265c.752 0 1.363-.612 1.363-1.363a1.133 1.133 0 112.266 0c0 .751.612 1.363 1.363 1.363a1.133 1.133 0 110 2.265c-.751 0-1.363.612-1.363 1.364 0 .625-.507 1.133-1.133 1.133zM77.22 7.258a1.133 1.133 0 01-1.132-1.133c0-.752-.611-1.363-1.363-1.363a1.133 1.133 0 110-2.266c.751 0 1.363-.611 1.363-1.363a1.133 1.133 0 112.266 0c0 .752.611 1.363 1.363 1.363a1.133 1.133 0 110 2.266c-.752 0-1.363.611-1.363 1.363 0 .625-.507 1.133-1.133 1.133zM29.822 70.87a1.133 1.133 0 01-1.132-1.132c0-.752-.612-1.364-1.364-1.364a1.133 1.133 0 110-2.265c.752 0 1.364-.612 1.364-1.363a1.133 1.133 0 012.265 0c0 .751.612 1.363 1.364 1.363a1.133 1.133 0 010 2.266c-.752 0-1.364.61-1.364 1.363 0 .625-.507 1.133-1.133 1.133z" fill="#02BF7F"/><defs><linearGradient id="paint0_linear_361_71" x1="78.581" y1="111.634" x2="15.508" y2="-63.664" gradientUnits="userSpaceOnUse"><stop offset=".002" stop-color="#B4CDF4"/><stop offset=".592" stop-color="#CAEBE5"/></linearGradient></defs></svg>