<svg width="93" height="93" fill="none" xmlns="http://www.w3.org/2000/svg"><path d="M56.322 16.23C52.43 6.663 43.013-.067 32.032 0 18.023.088 6.505 11.387 6.165 25.392a25.945 25.945 0 006.6 17.98c3.382 3.788 5.079 8.777 4.908 13.853a35.11 35.11 0 00-.01 2.038C18.111 77.68 33.846 93.011 52.27 93c19.096-.011 34.574-15.496 34.574-34.595 0-14-8.317-26.056-20.278-31.5A19.975 19.975 0 0156.322 16.23z" fill="url(#paint0_linear_223_84)"/><path opacity=".1" d="M82.828 16.042v46.182a2.726 2.726 0 01-2.725 2.724H12.897a2.726 2.726 0 01-2.725-2.724V16.042a2.726 2.726 0 012.724-2.725h67.207a2.726 2.726 0 012.725 2.725z" fill="#243C70"/><path d="M66.91 10.819a.908.908 0 01-.643-.266l-2-2.001a.908.908 0 010-1.285l2-2.001a.908.908 0 011.285 0l2.001 2.001a.908.908 0 010 1.285l-2.001 2.001a.909.909 0 01-.643.266zm-.717-2.91l.716.717.717-.717-.717-.717-.716.717z" fill="#02BF7F"/><path d="M69.396 79.282a.908.908 0 01-.642-.265l-2.002-2.002a.908.908 0 010-1.284l2.002-2.001a.908.908 0 011.284 0l2.001 2a.908.908 0 010 1.285l-2.001 2.002a.91.91 0 01-.642.266zm-.717-2.909l.717.717.717-.717-.717-.717-.717.717z" fill="#1E80F3"/><path d="M19.378 86.686a.908.908 0 01-.908-.908c0-.603-.49-1.093-1.093-1.093a.908.908 0 110-1.817c.603 0 1.093-.49 1.093-1.093a.908.908 0 011.817 0c0 .603.49 1.093 1.093 1.093a.908.908 0 110 1.817c-.603 0-1.093.49-1.093 1.093a.908.908 0 01-.909.908z" fill="#02BF7F"/><path d="M27.248 78.258a.908.908 0 01-.908-.908c0-.603-.49-1.093-1.093-1.093a.908.908 0 110-1.817c.603 0 1.093-.49 1.093-1.093a.908.908 0 111.817 0c0 .603.49 1.094 1.093 1.094a.908.908 0 110 1.816c-.603 0-1.093.49-1.093 1.093a.908.908 0 01-.909.908z" fill="#1E80F3"/><path d="M56.801 81.97H36.2l2.685-10.645 1.435-5.686h12.362l1.435 5.686 2.685 10.645z" fill="#78B5EE"/><path d="M54.116 71.325H38.884l1.435-5.686H52.68l1.435 5.686z" fill="#529FFA"/><path d="M56.801 82.877H36.198a.908.908 0 01-.88-1.13l3.242-12.85a.909.909 0 011.761.444l-2.957 11.72h18.272l-2.984-11.825a.908.908 0 111.761-.444l3.269 12.954a.908.908 0 01-.88 1.13z" fill="#243C70"/><path d="M82.828 19.856v46.182a2.726 2.726 0 01-2.725 2.725H12.897a2.726 2.726 0 01-2.725-2.725V19.856a2.726 2.726 0 012.724-2.724h67.207a2.726 2.726 0 012.725 2.724z" fill="#fff"/><path d="M80.103 17.132h-15.62v51.63h15.62a2.726 2.726 0 002.725-2.724V19.856a2.726 2.726 0 00-2.725-2.724z" fill="#CCEEE3"/><path d="M82.828 25.882v-6.025a2.725 2.725 0 00-2.725-2.725H12.897a2.725 2.725 0 00-2.725 2.725v6.025h72.656z" fill="#1E80F3"/><path d="M82.828 26.79H10.172a.908.908 0 110-1.816h72.656a.908.908 0 110 1.816z" fill="#243C70"/><path d="M10.172 59.61v6.429a2.725 2.725 0 002.724 2.724h67.207a2.725 2.725 0 002.725-2.724V59.61H10.172z" fill="#78B5EE"/><path d="M82.728 60.519H15.977a.908.908 0 110-1.817h66.75a.908.908 0 010 1.817zM60.292 82.877H32.707a.908.908 0 110-1.817h27.585a.908.908 0 010 1.817zM17.089 22.429a.908.908 0 01-.908-.908v-.027a.908.908 0 111.816 0v.027a.908.908 0 01-.908.908zm3.511 0a.908.908 0 01-.909-.908v-.027a.908.908 0 111.817 0v.027a.908.908 0 01-.908.908zm3.51 0a.908.908 0 01-.909-.908v-.027a.908.908 0 111.817 0v.027a.908.908 0 01-.909.908z" fill="#243C70"/><path d="M80.103 69.671H12.897a3.637 3.637 0 01-3.633-3.633v-46.18a3.637 3.637 0 013.633-3.633h67.206a3.637 3.637 0 013.633 3.633v6.025a.908.908 0 11-1.816 0v-6.025a1.818 1.818 0 00-1.817-1.816H12.897a1.818 1.818 0 00-1.817 1.816V66.04c0 1.001.815 1.816 1.816 1.816h67.207a1.818 1.818 0 001.817-1.816V30.885a.908.908 0 111.816 0v35.154a3.637 3.637 0 01-3.633 3.632z" fill="#243C70"/><circle cx="47" cy="16" r="14" fill="#F5CA2A"/><path d="M57.734 5.485A15.468 15.468 0 0046.805 1a15.468 15.468 0 00-10.93 4.485c-2.93 2.892-4.544 6.722-4.544 10.785 0 4.062 1.614 7.893 4.545 10.785a15.468 15.468 0 0010.929 4.484c4.117 0 7.998-1.593 10.93-4.485 2.93-2.891 4.544-6.722 4.544-10.784 0-4.063-1.614-7.893-4.545-10.785zM46.805 29.75c-7.532 0-13.66-6.047-13.66-13.48 0-7.433 6.127-13.48 13.66-13.48 7.532 0 13.66 6.047 13.66 13.48 0 7.433-6.128 13.48-13.66 13.48z" fill="#243C70"/><path d="M46.5 6C40.71 6 36 10.71 36 16.5S40.71 27 46.5 27 57 22.29 57 16.5 52.29 6 46.5 6z" fill="#fff"/><path d="M49.344 11.156h0c.798.591 1.223 1.403 1.223 2.212a.4.4 0 01-.407.395.4.4 0 01-.407-.395c0-.559-.282-1.042-.678-1.402-.396-.36-.93-.624-1.518-.766l-.617-.15v4.606l.422.067c.751.119 1.435.397 1.982.802h0c.798.59 1.223 1.402 1.223 2.212 0 .809-.425 1.62-1.223 2.211h0c-.547.405-1.23.683-1.982.802l-.422.067v1.402a.4.4 0 01-.407.395.4.4 0 01-.406-.395v-1.402l-.422-.067c-.752-.119-1.435-.397-1.983-.802-.798-.59-1.222-1.402-1.222-2.212a.4.4 0 01.407-.394.4.4 0 01.406.395c0 .559.283 1.042.679 1.402.395.36.929.624 1.518.766l.617.15v-4.606l-.422-.067c-.752-.119-1.435-.397-1.983-.802-.798-.59-1.222-1.403-1.222-2.212 0-.809.424-1.62 1.222-2.212h0c.548-.405 1.231-.682 1.983-.801l.422-.067V8.895a.4.4 0 01.406-.395.4.4 0 01.407.395v1.393l.422.067c.751.119 1.435.396 1.982.801zm-3.217.53v-.635l-.617.149c-.59.141-1.123.406-1.518.766-.396.36-.679.843-.679 1.402 0 .56.283 1.042.679 1.403.395.36.929.624 1.518.766l.617.149v-4.001zm.813 8.733v.635l.617-.149c.589-.142 1.122-.406 1.518-.766.396-.36.678-.843.678-1.402 0-.56-.282-1.042-.678-1.403-.396-.36-.93-.624-1.518-.766l-.617-.15v4.001z" stroke="#243C70"/><path d="M27.643 37.333H65.63c1.827 0 1.827 3 0 3H27.643c-2.19 0-2.19-3 0-3z" stroke="#243C70" stroke-width="1.8"/><path fill-rule="evenodd" clip-rule="evenodd" d="M37.66 30.29c.69 0 1.25.559 1.25 1.25v2.776a1.25 1.25 0 01-2.5 0v-2.777c0-.69.56-1.25 1.25-1.25zm4.924 1.387c.69 0 1.25.56 1.25 1.25v1.389a1.25 1.25 0 01-2.5 0v-1.389c0-.69.56-1.25 1.25-1.25zm9.69 1.25a1.25 1.25 0 00-2.5 0v1.389a1.25 1.25 0 002.5 0v-1.389zm-5.47-.556c.69 0 1.25.56 1.25 1.25v.695a1.25 1.25 0 01-2.5 0v-.695c0-.69.56-1.25 1.25-1.25zm10.393-.832a1.25 1.25 0 00-2.5 0v2.777a1.25 1.25 0 002.5 0v-2.777z" fill="#243C70"/><path d="M25 50.633v-7.3h2.747c.793 0 1.42.233 1.882.699.46.466.691 1.081.691 1.846 0 .813-.256 1.446-.768 1.898-.512.445-1.162.667-1.95.667H26.48v2.19H25zm1.479-3.618h1.172c.364 0 .65-.105.854-.313.212-.209.317-.48.317-.814 0-.354-.105-.625-.317-.813-.211-.195-.505-.292-.883-.292h-1.143v2.232zm6.148 3.723c-.506 0-.928-.153-1.268-.46-.333-.305-.499-.73-.499-1.271 0-.591.186-1.036.557-1.335.378-.3.883-.449 1.517-.449.43 0 .849.077 1.258.23v-.094c0-.682-.368-1.022-1.104-1.022-.442 0-.916.1-1.421.302l-.365-1.21a4.586 4.586 0 011.997-.448c.775 0 1.354.209 1.739.626.37.403.556.997.556 1.783v3.243h-1.411v-.605c-.39.473-.91.71-1.556.71zm.442-1.095c.34 0 .614-.09.826-.272a.908.908 0 00.317-.709v-.281a2.036 2.036 0 00-.932-.209c-.32 0-.57.07-.749.209-.173.132-.26.327-.26.584 0 .208.074.375.222.5.147.118.339.178.576.178zm4.823 2.69c-.46 0-.893-.128-1.296-.386l.49-1.147c.224.146.432.22.624.22.23 0 .4-.122.509-.366l-2.017-5.61h1.546l1.172 3.806 1.123-3.806h1.518l-1.979 5.725c-.198.577-.422.98-.672 1.21-.25.236-.589.354-1.018.354zm4.683-1.7v-7.3h1.479v3.191l2.727-3.19h1.787L45.83 46.43l2.861 4.202h-1.776l-2.084-3.107-.778.876v2.231h-1.48zm8.227.105c-.506 0-.928-.153-1.267-.46-.333-.305-.5-.73-.5-1.271 0-.591.186-1.036.557-1.335.378-.3.884-.449 1.517-.449.43 0 .849.077 1.258.23v-.094c0-.682-.368-1.022-1.104-1.022-.442 0-.915.1-1.421.302l-.365-1.21a4.587 4.587 0 011.997-.448c.775 0 1.355.209 1.739.626.371.403.557.997.557 1.783v3.243h-1.412v-.605c-.39.473-.91.71-1.556.71zm.442-1.095c.34 0 .615-.09.826-.272a.908.908 0 00.317-.709v-.281a2.036 2.036 0 00-.932-.209c-.32 0-.57.07-.749.209-.173.132-.26.327-.26.584 0 .208.075.375.222.5.147.118.34.178.576.178zm5.587 1.095c-.813 0-1.55-.282-2.209-.845l.625-1.043c.563.445 1.104.667 1.623.667.41 0 .614-.146.614-.438a.3.3 0 00-.019-.104.187.187 0 00-.048-.094.453.453 0 00-.087-.073.318.318 0 00-.115-.073.678.678 0 00-.125-.062.637.637 0 00-.144-.063 1.645 1.645 0 00-.163-.062 5.476 5.476 0 00-.182-.053 4.406 4.406 0 00-.183-.062 5.206 5.206 0 01-.557-.209 3.404 3.404 0 01-.47-.302 1.324 1.324 0 01-.384-.49 1.82 1.82 0 01-.125-.699c0-.55.179-.98.538-1.293.358-.32.806-.48 1.344-.48.691 0 1.332.216 1.92.647l-.556 1.095c-.545-.348-1.009-.522-1.393-.522-.358 0-.538.136-.538.407 0 .188.295.39.884.605l.163.063c.173.062.32.121.442.177.121.055.26.132.413.23.154.096.275.2.365.312.096.104.176.24.24.407.064.167.096.35.096.553 0 .597-.183 1.05-.547 1.355-.36.3-.833.449-1.422.449zm4.727 0c-.813 0-1.55-.282-2.209-.845l.624-1.043c.564.445 1.105.667 1.623.667.41 0 .615-.146.615-.438a.3.3 0 00-.02-.104.188.188 0 00-.047-.094.455.455 0 00-.087-.073.318.318 0 00-.115-.073.682.682 0 00-.125-.062.634.634 0 00-.144-.063 1.664 1.664 0 00-.163-.062 5.476 5.476 0 00-.183-.053 4.457 4.457 0 00-.182-.062 5.198 5.198 0 01-.557-.209 3.404 3.404 0 01-.47-.302 1.324 1.324 0 01-.385-.49 1.82 1.82 0 01-.125-.699c0-.55.18-.98.538-1.293.359-.32.807-.48 1.345-.48.691 0 1.331.216 1.92.647l-.557 1.095c-.544-.348-1.008-.522-1.392-.522-.359 0-.538.136-.538.407 0 .188.294.39.883.605.07.028.125.049.164.063.173.062.32.121.442.177.121.055.259.132.413.23.153.096.275.2.364.312.096.104.177.24.24.407.065.167.096.35.096.553 0 .597-.182 1.05-.547 1.355-.358.3-.832.449-1.421.449zm4.475 0c-.506 0-.929-.153-1.268-.46-.333-.305-.5-.73-.5-1.271 0-.591.186-1.036.558-1.335.377-.3.883-.449 1.517-.449.429 0 .848.077 1.258.23v-.094c0-.682-.368-1.022-1.105-1.022-.441 0-.915.1-1.42.302l-.366-1.21a4.586 4.586 0 011.998-.448c.775 0 1.354.209 1.738.626.371.403.557.997.557 1.783v3.243h-1.412v-.605c-.39.473-.909.71-1.555.71zm.441-1.095c.34 0 .615-.09.826-.272a.908.908 0 00.317-.709v-.281a2.036 2.036 0 00-.931-.209c-.32 0-.57.07-.75.209-.172.132-.259.327-.259.584 0 .208.074.375.221.5.147.118.34.178.576.178z" fill="#02BF7F"/><defs><linearGradient id="paint0_linear_223_84" x1="12.463" y1="-1.126" x2="74.856" y2="92.018" gradientUnits="userSpaceOnUse"><stop offset=".049" stop-color="#CAECE5"/><stop offset=".999" stop-color="#B3CCF5"/></linearGradient></defs></svg>