<svg width="263" height="263" fill="none" xmlns="http://www.w3.org/2000/svg"><path fill="#fff" d="M131.658.13l130.808 131.3-130.99 131.48L.668 131.613z"/><path d="M131.5 0L63.498 68.017v33.555c13.06-12.243 28.372-10.882 40.531-2.267 7.206 4.988 18.014 17.685 18.014 17.685l-.451 22.219c-10.808-13.15-11.258-13.604-18.464-20.406-21.616-21.765-36.477 1.361-36.477 1.361-1.802 2.72-2.702 5.895-2.702 9.522 0 4.081 1.35 8.162 4.053 11.336 0 0 16.212 18.592 35.577-2.267l9.457 11.336c-22.968 24.487-49.538 9.069-49.538 9.069v4.535H46.836v-78.9L0 131.5 131.5 263 263 131.5 131.5 0zm65.3 163.241v-43.077c0-4.081-1.802-7.709-5.404-9.976-4.054-2.721-9.908-4.535-16.663 0-3.153 2.267-4.954 5.895-4.954 9.522v43.078h-19.365V119.71c-.45-6.348-4.953-9.976-4.953-9.976-1.802-1.813-9.908-6.801-19.365-.453l-17.563-18.138h33.775c6.755 0 13.961 2.72 19.365 9.523 3.152-3.628 9.457-9.523 19.365-9.523h5.404c14.411 0 27.02 5.895 29.272 23.126l.45 48.972H196.8z" fill="#FF2E1A"/></svg>