<svg width="22" height="22" fill="none" xmlns="http://www.w3.org/2000/svg"><g clip-path="url(#clip0_381_83)" fill="#02BF7F"><path d="M21.61 4.491L15.058 11l6.55 6.509c.119-.248.19-.522.19-.814V5.305a1.87 1.87 0 00-.19-.814zm-1.708-1.085H2.098c-.292 0-.565.072-.813.19l8.373 8.33a1.9 1.9 0 002.684 0l8.373-8.33a1.876 1.876 0 00-.813-.19zM.39 4.491a1.86 1.86 0 00-.19.814v11.39c0 .293.071.566.19.814l6.55-6.51L.39 4.492z"/><path d="M14.164 11.895l-.927.927a3.167 3.167 0 01-4.474 0l-.927-.927-6.55 6.509c.247.118.52.19.812.19h17.804c.292 0 .565-.072.813-.19l-6.55-6.51z"/></g><defs><clipPath id="clip0_381_83"><path fill="#fff" transform="translate(.2 .2)" d="M0 0h21.6v21.6H0z"/></clipPath></defs></svg>