<svg width="21" height="18" viewBox="0 0 21 18" fill="none" xmlns="http://www.w3.org/2000/svg">
<path d="M0.471238 8.659L5.24611 10.4174L7.09299 16.3688C7.22813 16.7295 7.67859 16.9099 7.99391 16.6394L10.6516 14.4752C10.9219 14.2498 11.3273 14.2498 11.5976 14.4301L16.3725 17.9018C16.6878 18.1272 17.1833 17.9469 17.2734 17.5411L20.787 0.678643C20.8771 0.227775 20.4716 -0.132919 20.0212 0.0474277L0.471238 7.62201C-0.024267 7.80235 -0.024267 8.47866 0.471238 8.659ZM6.77767 9.51565L16.1022 3.78963C16.2824 3.69946 16.4626 3.92489 16.2824 4.06015L8.62455 11.1839C8.35428 11.4544 8.17409 11.77 8.12905 12.1307L7.85877 14.0694C7.81373 14.3399 7.45336 14.3399 7.40831 14.1145L6.4173 10.5977C6.23712 10.1469 6.4173 9.74109 6.77767 9.51565Z" fill="#02BF7F"/>
</svg>
