<svg width="24" height="15" fill="none" xmlns="http://www.w3.org/2000/svg"><path d="M11.754 14.13h1.378s.409-.05.664-.257c.204-.205.204-.617.204-.617s-.05-1.904.868-2.162c.868-.257 1.94 1.853 3.115 2.625.867.618 1.531.463 1.531.463l3.115-.051s1.633-.103.867-1.39c-.05-.103-.459-.977-2.348-2.727-1.94-1.853-1.685-1.544.664-4.735 1.43-1.955 1.99-3.139 1.838-3.602-.153-.463-1.226-.36-1.226-.36h-3.522s-.256-.052-.46.103c-.153.103-.255.36-.255.36s-.562 1.492-1.277 2.779c-1.582 2.676-2.195 2.83-2.45 2.676-.613-.412-.46-1.544-.46-2.419 0-2.624.409-3.705-.765-3.962C12.825.75 12.57.699 11.6.699c-1.277 0-2.298 0-2.91.31-.409.205-.715.617-.51.668.254.052.765.154 1.02.515.358.514.307 1.595.307 1.595s.204 3.036-.46 3.448c-.46.257-1.123-.257-2.502-2.728C5.781 3.272 5.27 1.934 5.27 1.934s-.102-.257-.306-.411c-.204-.155-.562-.206-.562-.206h-3.37s-.51 0-.663.257c-.153.206 0 .618 0 .618s2.604 6.175 5.565 9.314c2.757 2.78 5.82 2.625 5.82 2.625z" fill="#fff"/></svg>